<svg width="167" height="178" viewBox="0 0 167 178" fill="none" xmlns="http://www.w3.org/2000/svg">
<circle cx="80.5" cy="87.5" r="68" stroke="#D6D6D6" stroke-width="15"/>
<mask id="mask0_111_679" style="mask-type:alpha" maskUnits="userSpaceOnUse" x="0" y="0" width="167" height="178">
<path d="M75.5 75L80 0H143L167 24V178H0.5V24L75.5 75Z" fill="#D9D9D9"/>
</mask>
<g mask="url(#mask0_111_679)">
<circle cx="80.5" cy="87.5" r="68" stroke="#5FEBEB" stroke-width="15"/>
</g>
<circle cx="80.5" cy="19.5" r="7.5" fill="#5FEBEB"/>
<circle cx="29.5" cy="42.5" r="7.5" fill="#5FEBEB"/>
<path d="M48.0966 95V80.54H58.0266L58.0166 83H51.0266V86.51H57.0966V88.92H51.0066V92.51L58.1266 92.52V95H48.0966ZM60.3047 95V84.66H63.1747V86.12C63.3347 85.8667 63.5414 85.6233 63.7947 85.39C64.0547 85.15 64.3814 84.9533 64.7747 84.8C65.168 84.6467 65.6347 84.57 66.1747 84.57C66.808 84.57 67.398 84.6933 67.9447 84.94C68.498 85.1867 68.9447 85.5767 69.2847 86.11C69.6247 86.6367 69.7947 87.3267 69.7947 88.18V95H66.8747V88.54C66.8747 87.98 66.708 87.56 66.3747 87.28C66.0414 87 65.6347 86.86 65.1547 86.86C64.8347 86.86 64.5247 86.9167 64.2247 87.03C63.9314 87.1433 63.6914 87.3133 63.5047 87.54C63.318 87.7667 63.2247 88.0467 63.2247 88.38V95H60.3047ZM74.5602 90.5C74.5535 91.0267 74.6368 91.4867 74.8102 91.88C74.9835 92.2667 75.2335 92.5667 75.5602 92.78C75.8935 92.9867 76.2935 93.09 76.7602 93.09C77.2602 93.09 77.6968 92.9833 78.0702 92.77C78.4502 92.5567 78.7135 92.2067 78.8602 91.72H81.4902C81.3768 92.4533 81.0835 93.08 80.6102 93.6C80.1435 94.12 79.5768 94.5167 78.9102 94.79C78.2435 95.0633 77.5502 95.2 76.8302 95.2C75.8102 95.2 74.9102 94.9867 74.1302 94.56C73.3568 94.1267 72.7535 93.5167 72.3202 92.73C71.8868 91.9433 71.6702 91.0167 71.6702 89.95C71.6702 88.9167 71.8668 87.9867 72.2602 87.16C72.6535 86.3267 73.2235 85.67 73.9702 85.19C74.7235 84.7033 75.6268 84.46 76.6802 84.46C77.7335 84.46 78.6168 84.6833 79.3302 85.13C80.0502 85.57 80.5902 86.1867 80.9502 86.98C81.3168 87.7667 81.5002 88.6767 81.5002 89.71V90.5H74.5602ZM74.5502 88.76H78.7702C78.7702 88.3467 78.6935 87.9667 78.5402 87.62C78.3868 87.2733 78.1535 87 77.8402 86.8C77.5335 86.6 77.1468 86.5 76.6802 86.5C76.2268 86.5 75.8402 86.61 75.5202 86.83C75.2068 87.0433 74.9668 87.3233 74.8002 87.67C74.6335 88.0167 74.5502 88.38 74.5502 88.76ZM83.5273 95V84.66H86.3373V87.11C86.504 86.5833 86.7373 86.1233 87.0373 85.73C87.344 85.33 87.714 85.02 88.1473 84.8C88.5807 84.5733 89.0707 84.46 89.6173 84.46C89.7107 84.46 89.7973 84.4667 89.8773 84.48C89.964 84.4867 90.0273 84.5 90.0673 84.52V87.3C90.0073 87.2733 89.934 87.2567 89.8473 87.25C89.7673 87.2433 89.694 87.2367 89.6273 87.23C89.054 87.1833 88.564 87.2 88.1573 87.28C87.7507 87.36 87.4207 87.4967 87.1673 87.69C86.914 87.8833 86.7307 88.12 86.6173 88.4C86.504 88.68 86.4473 88.9933 86.4473 89.34V95H83.5273ZM96.4423 98.42C94.6023 98.42 93.2023 98.1867 92.2423 97.72C91.289 97.2533 90.8123 96.64 90.8123 95.88C90.8123 95.5267 90.9057 95.23 91.0923 94.99C91.279 94.75 91.4957 94.56 91.7423 94.42C91.9957 94.2733 92.2257 94.1633 92.4323 94.09C92.6457 94.01 92.7757 93.9567 92.8223 93.93C92.7157 93.87 92.5623 93.7833 92.3623 93.67C92.1623 93.55 91.9757 93.39 91.8023 93.19C91.6357 92.9833 91.5523 92.7167 91.5523 92.39C91.5523 92.0233 91.7257 91.6833 92.0723 91.37C92.4257 91.0567 92.959 90.84 93.6723 90.72C92.9923 90.4 92.4757 89.9667 92.1223 89.42C91.769 88.8733 91.5923 88.3133 91.5923 87.74C91.5923 87.06 91.8057 86.4767 92.2323 85.99C92.659 85.5033 93.239 85.1333 93.9723 84.88C94.7123 84.6267 95.549 84.5 96.4823 84.5C97.1957 84.5 97.779 84.5767 98.2323 84.73C98.6857 84.8767 99.1057 85.07 99.4923 85.31C99.6457 85.25 99.849 85.1733 100.102 85.08C100.356 84.98 100.629 84.8733 100.922 84.76C101.216 84.64 101.502 84.5233 101.782 84.41C102.062 84.29 102.312 84.1833 102.532 84.09L102.522 86.35L100.732 86.64C100.806 86.82 100.862 87.0133 100.902 87.22C100.942 87.4267 100.962 87.5967 100.962 87.73C100.962 88.33 100.786 88.89 100.432 89.41C100.086 89.93 99.5623 90.35 98.8623 90.67C98.169 90.99 97.309 91.15 96.2823 91.15C96.1557 91.15 95.9857 91.1467 95.7723 91.14C95.5657 91.1333 95.3957 91.1233 95.2623 91.11C94.869 91.13 94.599 91.18 94.4523 91.26C94.3057 91.34 94.2323 91.4333 94.2323 91.54C94.2323 91.7 94.3823 91.8067 94.6823 91.86C94.9823 91.9067 95.4357 91.95 96.0423 91.99C96.2557 92.0033 96.5523 92.02 96.9323 92.04C97.3123 92.06 97.7323 92.0867 98.1923 92.12C99.459 92.2067 100.402 92.52 101.022 93.06C101.649 93.5933 101.962 94.2667 101.962 95.08C101.962 96.0467 101.502 96.8433 100.582 97.47C99.669 98.1033 98.289 98.42 96.4423 98.42ZM96.9123 96.79C97.7257 96.79 98.3057 96.69 98.6523 96.49C98.999 96.29 99.1723 96.0033 99.1723 95.63C99.1723 95.3167 99.039 95.0633 98.7723 94.87C98.5057 94.67 98.1157 94.5533 97.6023 94.52L95.2323 94.36C94.9257 94.3467 94.6523 94.3933 94.4123 94.5C94.179 94.6067 93.9957 94.7533 93.8623 94.94C93.7357 95.1267 93.6723 95.3267 93.6723 95.54C93.6723 95.9733 93.9357 96.29 94.4623 96.49C94.989 96.69 95.8057 96.79 96.9123 96.79ZM96.3623 89.52C96.9157 89.52 97.359 89.37 97.6923 89.07C98.0323 88.7633 98.2023 88.35 98.2023 87.83C98.2023 87.29 98.0323 86.8567 97.6923 86.53C97.359 86.2033 96.9157 86.04 96.3623 86.04C95.8157 86.04 95.369 86.2033 95.0223 86.53C94.6823 86.8567 94.5123 87.29 94.5123 87.83C94.5123 88.3433 94.6757 88.7533 95.0023 89.06C95.3357 89.3667 95.789 89.52 96.3623 89.52ZM106.133 98.3C105.427 98.3 104.927 98.24 104.633 98.12C104.347 98.0067 104.203 97.95 104.203 97.95V96.09L105.223 96.13C105.67 96.1567 106.03 96.1333 106.303 96.06C106.577 95.9933 106.783 95.9033 106.923 95.79C107.07 95.6767 107.173 95.5567 107.233 95.43C107.293 95.31 107.337 95.2133 107.363 95.14L107.553 94.57L103.533 84.66H106.423L108.903 91.4L111.413 84.66H114.263L110.073 95.06C109.713 95.94 109.333 96.6133 108.933 97.08C108.533 97.5467 108.1 97.8667 107.633 98.04C107.173 98.2133 106.673 98.3 106.133 98.3Z" fill="#1B1B1B"/>
</svg>
