<svg width="16" height="16" viewBox="0 0 16 16" fill="none" xmlns="http://www.w3.org/2000/svg">
<path d="M4.41284 6.68807H4.42043M7.82568 6.68807H7.83327M11.2385 6.68807H11.2461M4.03364 12.3761V14.1474C4.03364 14.5515 4.03364 14.7536 4.11648 14.8574C4.18852 14.9476 4.29777 15.0001 4.41325 15C4.54604 14.9999 4.70382 14.8736 5.01938 14.6212L6.82854 13.1739C7.19811 12.8782 7.3829 12.7304 7.58867 12.6252C7.77123 12.532 7.96556 12.4638 8.16637 12.4226C8.39272 12.3761 8.62937 12.3761 9.10265 12.3761H11.011C12.2853 12.3761 12.9224 12.3761 13.4091 12.1282C13.8372 11.91 14.1852 11.562 14.4034 11.1338C14.6514 10.6471 14.6514 10.01 14.6514 8.73577V4.64036C14.6514 3.36612 14.6514 2.72899 14.4034 2.2423C14.1852 1.81418 13.8372 1.46612 13.4091 1.24799C12.9224 1 12.2853 1 11.011 1H4.64036C3.36612 1 2.72899 1 2.2423 1.24799C1.81418 1.46612 1.46612 1.81418 1.24799 2.2423C1 2.72899 1 3.36612 1 4.64036V9.3425C1 10.0478 1 10.4005 1.07753 10.6898C1.28791 11.4749 1.90119 12.0882 2.68636 12.2986C2.97569 12.3761 3.32834 12.3761 4.03364 12.3761ZM4.79205 6.68807C4.79205 6.8975 4.62227 7.06727 4.41284 7.06727C4.20341 7.06727 4.03364 6.8975 4.03364 6.68807C4.03364 6.47864 4.20341 6.30887 4.41284 6.30887C4.62227 6.30887 4.79205 6.47864 4.79205 6.68807ZM8.20489 6.68807C8.20489 6.8975 8.03511 7.06727 7.82568 7.06727C7.61625 7.06727 7.44648 6.8975 7.44648 6.68807C7.44648 6.47864 7.61625 6.30887 7.82568 6.30887C8.03511 6.30887 8.20489 6.47864 8.20489 6.68807ZM11.6177 6.68807C11.6177 6.8975 11.448 7.06727 11.2385 7.06727C11.0291 7.06727 10.8593 6.8975 10.8593 6.68807C10.8593 6.47864 11.0291 6.30887 11.2385 6.30887C11.448 6.30887 11.6177 6.47864 11.6177 6.68807Z" stroke="#1B1B1B" stroke-width="1.5" stroke-linecap="round" stroke-linejoin="round"/>
</svg>
