<svg width="16" height="16" viewBox="0 0 16 16" fill="none" xmlns="http://www.w3.org/2000/svg">
<path d="M5.94234 14.3C6.43593 14.7357 7.0843 15 7.79441 15C8.50452 15 9.1529 14.7357 9.64649 14.3M1.00014 3.67392C0.990093 2.65798 1.53783 1.70927 2.42268 1.21M14.5859 3.67393C14.5959 2.65799 14.0482 1.70928 13.1634 1.21M11.9944 5.2C11.9944 4.08609 11.5519 3.0178 10.7643 2.23015C9.97661 1.4425 8.90832 1 7.79441 1C6.6805 1 5.61222 1.4425 4.82456 2.23015C4.03691 3.0178 3.59441 4.08609 3.59441 5.2C3.59441 7.36313 3.04874 8.84417 2.43918 9.82379C1.925 10.6501 1.66791 11.0633 1.67734 11.1785C1.68778 11.3062 1.71481 11.3548 1.81766 11.4311C1.91053 11.5 2.32923 11.5 3.16661 11.5H12.4222C13.2596 11.5 13.6783 11.5 13.7712 11.4311C13.874 11.3548 13.901 11.3062 13.9115 11.1785C13.9209 11.0633 13.6638 10.6501 13.1496 9.82379C12.5401 8.84417 11.9944 7.36313 11.9944 5.2Z" stroke="#1B1B1B" stroke-width="1.5" stroke-linecap="round" stroke-linejoin="round"/>
</svg>
