<svg fill="none" height="34" width="48" xmlns="http://www.w3.org/2000/svg"><path d="M28.667 2H11.333C8.94 2 7 3.93 7 6.313v14.375C7 23.069 8.94 25 11.333 25h17.334C31.06 25 33 23.07 33 20.687V6.313C33 3.932 31.06 2 28.667 2zM36 11.141c0-.28.076-.556.218-.794.142-.238.345-.43.586-.553l7.143-3.643a1.372 1.372 0 011.383.077c.205.135.374.323.491.545.118.222.18.472.179.726v12.004c0 .25-.06.497-.175.717-.114.22-.28.406-.48.541a1.371 1.371 0 01-1.364.105l-7.142-3.392a1.45 1.45 0 01-.61-.552A1.552 1.552 0 0136 16.11v-4.97z" fill="#C4C4C4"></path><g filter="url(#permissions_svg__filter0_d)"><path d="M3.67 4.376l40.66 21.785" stroke="#111" stroke-linecap="round" stroke-width="4"></path></g><defs><filter color-interpolation-filters="sRGB" filterUnits="userSpaceOnUse" height="32.785" id="permissions_svg__filter0_d" width="46.125" x="0.938" y="0.376"><feFlood flood-opacity="0" result="BackgroundImageFix"></feFlood><feColorMatrix in="SourceAlpha" values="0 0 0 0 0 0 0 0 0 0 0 0 0 0 0 0 0 0 127 0"></feColorMatrix><feOffset dy="3"></feOffset><feColorMatrix values="0 0 0 0 0.941176 0 0 0 0 0.941176 0 0 0 0 0.941176 0 0 0 1 0"></feColorMatrix><feBlend in2="BackgroundImageFix" result="effect1_dropShadow"></feBlend><feBlend in="SourceGraphic" in2="effect1_dropShadow" result="shape"></feBlend></filter></defs></svg>