<svg width="15" height="16" viewBox="0 0 15 16" fill="none" xmlns="http://www.w3.org/2000/svg">
<path d="M11.5625 6.33333V4.66667C11.5625 2.36548 9.74366 0.5 7.5 0.5C5.25634 0.5 3.4375 2.36548 3.4375 4.66667V6.33333M7.5 10.0833V11.75M4.9 15.5H10.1C11.4651 15.5 12.1477 15.5 12.6691 15.2275C13.1277 14.9878 13.5006 14.6054 13.7343 14.135C14 13.6002 14 12.9001 14 11.5V10.3333C14 8.9332 14 8.23314 13.7343 7.69836C13.5006 7.22795 13.1277 6.8455 12.6691 6.60582C12.1477 6.33333 11.4651 6.33333 10.1 6.33333H4.9C3.53487 6.33333 2.85231 6.33333 2.3309 6.60582C1.87225 6.8455 1.49936 7.22795 1.26567 7.69836C1 8.23314 1 8.9332 1 10.3333V11.5C1 12.9001 1 13.6002 1.26567 14.135C1.49936 14.6054 1.87225 14.9878 2.3309 15.2275C2.85231 15.5 3.53487 15.5 4.9 15.5Z" stroke="#2A2A2A" stroke-linecap="round" stroke-linejoin="round"/>
</svg>
