<svg width="225" height="41" viewBox="0 0 225 41" fill="none" xmlns="http://www.w3.org/2000/svg">
<path d="M57.6592 24.9821H51.9191L49.6682 28.8865L47.4173 24.9821H34.1892V7.74437H57.6592V24.9821ZM26.1079 17.7023L11.6608 25.9436C11.0868 26.2728 10.616 26.0017 10.616 25.337V8.87376C10.616 8.20903 11.0868 7.93798 11.6608 8.26712L26.1079 16.5084C26.6819 16.8376 26.6819 17.3732 26.1079 17.7023ZM62.1739 26.1631V6.56336C62.1739 4.72407 60.6583 3.22682 58.7944 3.22682H34.1312V1.20038C34.1312 0.535652 33.5959 0 32.9316 0H1.19962C0.535315 0 0 0.535652 0 1.20038V33.0104C0 33.6751 0.535315 34.2108 1.19962 34.2108H14.073L17.2849 40.5547C17.5816 41.1484 18.0717 41.1484 18.3684 40.5547L21.5803 34.2108H32.9316C33.5959 34.2108 34.1312 33.6751 34.1312 33.0104V29.5061H44.8117L47.4947 34.1591C47.9462 34.9852 48.7717 35.495 49.6747 35.495C50.5776 35.495 51.4031 34.9852 51.8482 34.1591L54.5312 29.5061H58.7944C60.6583 29.5061 62.1739 28.0088 62.1739 26.1695M101.252 10.5001C101.562 9.3836 101.716 8.31229 101.716 7.27971C101.716 6.69888 101.607 6.33103 101.381 6.16968C101.155 6.00834 100.704 5.9309 100.033 5.9309C98.5689 5.9309 96.8856 6.17614 94.9765 6.66016C93.0674 7.15064 90.9326 8.08642 88.5656 9.47395C88.6624 8.08642 88.6624 6.99575 88.5656 6.20841C82.8706 6.3762 79.7748 6.56336 79.2782 6.76987C78.7816 6.97639 78.5365 7.41524 78.5365 8.09287C78.5365 8.84149 78.7042 9.59657 79.046 10.3452C80.2844 10.3452 81.1486 10.8228 81.6452 11.7779C82.1418 12.733 82.3869 15.8372 82.3869 21.0841C82.3869 24.7239 82.3418 27.9185 82.245 30.6742H80.1941C79.6136 30.6742 79.1944 30.8032 78.9299 31.0549C78.6655 31.3066 78.5365 31.7261 78.5365 32.3069C78.5365 32.9975 78.7042 33.7397 79.046 34.527H93.3835C94.1703 34.527 94.6992 34.3979 94.97 34.1333C95.2409 33.8687 95.3764 33.4105 95.3764 32.7522C95.3764 31.9843 95.2087 31.2873 94.8733 30.6677H90.4618C90.3651 27.912 90.3199 24.6336 90.3199 20.8259C90.3199 16.6633 90.6875 14.0819 91.4292 13.0751C92.1709 12.0683 93.2351 11.5714 94.6218 11.5714C95.5183 12.7524 96.0471 13.3784 96.2084 13.4558C96.3696 13.5333 96.9436 13.4946 97.9369 13.3461C98.9301 13.1977 99.6524 12.9654 100.117 12.6427C100.575 12.3265 100.962 11.6101 101.271 10.4936M113.609 18.3348C113.629 15.5404 114.003 13.5849 114.732 12.4555C115.46 11.3261 116.518 10.7711 117.911 10.7711C119.22 10.7711 120.246 11.2358 120.975 12.1651C121.704 13.0944 122.071 14.3981 122.071 16.0889C122.071 16.7666 121.981 17.2441 121.794 17.5346C121.607 17.825 120.962 18.0315 119.865 18.1541C118.769 18.2767 117.182 18.3348 115.099 18.3348H113.609ZM115.325 27.9959C114.274 26.6019 113.725 24.6723 113.667 22.2134H124.122C126.65 22.2134 128.289 21.8133 129.043 21.0066C129.791 20.1999 130.165 18.8511 130.165 16.9602C130.165 13.1332 129.282 10.3387 127.521 8.56399C125.76 6.78923 122.929 5.90508 119.033 5.90508C114.667 5.90508 111.184 7.29907 108.592 10.0806C105.999 12.8621 104.696 16.7214 104.696 21.652C104.696 26.5826 105.85 29.7965 108.153 31.8616C110.455 33.9268 114.158 34.9529 119.253 34.9529C122.213 34.9529 124.793 34.6561 126.999 34.0688C129.204 33.4815 130.301 32.436 130.301 30.9323C130.301 29.8287 129.811 28.7962 128.837 27.841C126.102 29.3447 123.438 30.0933 120.852 30.0933C118.266 30.0933 116.363 29.3963 115.312 27.9959M142.865 13.2687C142.865 12.462 143.142 11.8424 143.697 11.41C144.251 10.9776 145.096 10.7647 146.238 10.7647C148.392 10.7647 151.494 11.6553 155.544 13.4365C156.615 12.0683 157.144 10.7195 157.144 9.3836C157.144 8.12514 156.376 7.23454 154.841 6.69888C153.306 6.16323 151.12 5.89863 148.295 5.89863C144.155 5.89863 140.917 6.69243 138.582 8.27357C136.247 9.86117 135.08 11.978 135.08 14.6433C135.08 16.5407 135.667 18.0896 136.834 19.2964C138.008 20.5032 139.956 21.6326 142.697 22.6846C145.245 23.6591 147.096 24.4658 148.25 25.1047C149.404 25.7436 149.979 26.5955 149.979 27.6668C149.979 28.5832 149.65 29.2415 148.998 29.6351C148.34 30.0288 147.424 30.2224 146.244 30.2224C143.361 30.2224 140.053 29.4286 136.325 27.8346C135.409 28.9575 134.951 30.1063 134.951 31.2679C134.97 32.8232 135.744 33.8494 137.286 34.3463C138.821 34.8432 141.401 35.0885 145.012 35.0885C148.927 35.0885 152.036 34.3398 154.332 32.8361C156.628 31.3389 157.776 29.1834 157.776 26.3696C157.776 24.2851 157.118 22.6071 155.796 21.3357C154.474 20.0579 152.249 18.8898 149.121 17.8185C146.444 16.8634 144.735 16.076 143.993 15.4565C143.252 14.8369 142.884 14.1077 142.884 13.2622M180.672 21.3745C180.672 24.8594 180.304 27.2086 179.563 28.4218C178.821 29.6287 177.692 30.2353 176.177 30.2353C174.416 30.2353 173.126 29.4222 172.313 27.7894C171.501 26.1566 171.088 23.4396 171.088 19.632C171.088 16.147 171.456 13.7979 172.197 12.5846C172.939 11.3778 174.068 10.7711 175.583 10.7711C177.344 10.7711 178.634 11.5843 179.447 13.2171C180.259 14.8498 180.672 17.5668 180.672 21.3745ZM185.703 30.8097C188.27 27.9507 189.553 23.9237 189.553 18.7285C189.553 14.5659 188.495 11.3907 186.38 9.19644C184.264 7.0022 181.104 5.90508 176.906 5.90508C172.242 5.90508 168.618 7.33779 166.044 10.1968C163.465 13.0557 162.181 17.0828 162.181 22.278C162.181 26.4406 163.245 29.6222 165.374 31.81C167.502 34.0042 170.662 35.1014 174.861 35.1014C179.524 35.1014 183.142 33.6687 185.709 30.8162M224.994 32.791C224.994 32.0617 224.852 31.3583 224.574 30.6806C223.452 30.7 222.717 30.3515 222.381 29.6287C222.046 28.9059 221.878 23.9366 221.878 14.7079C221.878 11.1842 221.233 8.84149 219.956 7.67338C218.673 6.51173 216.712 5.9309 214.068 5.9309C212.791 5.9309 211.217 6.1955 209.334 6.73115C207.451 7.2668 205.49 8.17031 203.446 9.44168C203.536 8.07351 203.536 6.99575 203.446 6.20841C197.751 6.3762 194.655 6.56336 194.158 6.76987C193.662 6.97639 193.416 7.41524 193.416 8.09287C193.416 8.84149 193.584 9.59657 193.926 10.3452C195.164 10.3452 196.029 10.8228 196.525 11.7779C197.022 12.733 197.267 15.8372 197.267 21.0841C197.267 24.3819 197.222 27.5829 197.125 30.6742H195.074C194.493 30.6742 194.074 30.8032 193.81 31.0549C193.545 31.3066 193.416 31.7261 193.416 32.3069C193.416 32.9975 193.584 33.7397 193.926 34.527H207.16C207.947 34.527 208.476 34.3979 208.747 34.1333C209.018 33.8687 209.153 33.4105 209.153 32.7522C209.153 31.9843 208.992 31.2873 208.676 30.6677H205.329C205.232 27.912 205.187 25.3499 205.187 22.9879V17.3345C205.187 14.8563 205.574 13.23 206.341 12.4555C207.109 11.6746 208.16 11.2874 209.489 11.2874C211.062 11.2874 212.204 11.9392 212.907 13.2429C213.61 14.5465 213.958 17.1086 213.958 20.9356V30.8613C213.958 32.0811 214.107 32.9459 214.41 33.4621C214.706 33.9784 215.261 34.2818 216.067 34.3786C216.874 34.4754 218.796 34.5205 221.827 34.5205C223.065 34.5205 223.904 34.3979 224.342 34.1527C224.781 33.9074 225 33.4492 225 32.7716" fill="#1B1B1B"/>
</svg>
