<svg width="14" height="17" viewBox="0 0 14 17" fill="none" xmlns="http://www.w3.org/2000/svg">
<path d="M8.5 0.715568V4.02C8.5 4.46804 8.5 4.69206 8.58719 4.86319C8.66389 5.01372 8.78628 5.13611 8.93681 5.21281C9.10794 5.3 9.33196 5.3 9.78 5.3H13.0844M13.3 6.89058V12.66C13.3 14.0041 13.3 14.6762 13.0384 15.1896C12.8083 15.6412 12.4412 16.0083 11.9896 16.2384C11.4762 16.5 10.8041 16.5 9.46 16.5H4.34C2.99587 16.5 2.32381 16.5 1.81042 16.2384C1.35883 16.0083 0.99168 15.6412 0.761584 15.1896C0.5 14.6762 0.5 14.0041 0.5 12.66V4.34C0.5 2.99587 0.5 2.32381 0.761584 1.81042C0.99168 1.35883 1.35883 0.99168 1.81042 0.761584C2.32381 0.5 2.99587 0.5 4.34 0.5H6.90942C7.49644 0.5 7.78995 0.5 8.06616 0.566312C8.31104 0.625104 8.54515 0.722075 8.75988 0.853664C9.00208 1.00208 9.20963 1.20963 9.62471 1.62471L12.1753 4.17529C12.5904 4.59037 12.7979 4.79792 12.9463 5.04012C13.0779 5.25485 13.1749 5.48896 13.2337 5.73384C13.3 6.01005 13.3 6.30356 13.3 6.89058Z" stroke="black" stroke-linecap="round" stroke-linejoin="round"/>
</svg>
