<svg width="18" height="15" viewBox="0 0 18 15" fill="none" xmlns="http://www.w3.org/2000/svg">
<path d="M12.6667 14.5L8.77778 11.3889L4.88889 14.5M4.73333 11.3889H12.8222C14.129 11.3889 14.7824 11.3889 15.2815 11.1346C15.7206 10.9109 16.0775 10.5539 16.3012 10.1149C16.5556 9.61574 16.5556 8.96235 16.5556 7.65556V4.23333C16.5556 2.92654 16.5556 2.27315 16.3012 1.77402C16.0775 1.33498 15.7206 0.978023 15.2815 0.754318C14.7824 0.5 14.129 0.5 12.8222 0.5H4.73333C3.42654 0.5 2.77315 0.5 2.27402 0.754318C1.83498 0.978023 1.47802 1.33498 1.25432 1.77402C1 2.27315 1 2.92654 1 4.23333V7.65556C1 8.96234 1 9.61574 1.25432 10.1149C1.47802 10.5539 1.83498 10.9109 2.27402 11.1346C2.77315 11.3889 3.42654 11.3889 4.73333 11.3889Z" stroke="black" stroke-linecap="round" stroke-linejoin="round"/>
</svg>
