<svg width="21" height="15" viewBox="0 0 21 15" fill="none" xmlns="http://www.w3.org/2000/svg">
<path d="M20.5 4.43137C20.5 3.82555 20.5 3.52265 20.3802 3.38238C20.2763 3.26068 20.1203 3.19609 19.9608 3.20865C19.7769 3.22312 19.5627 3.43731 19.1343 3.86569L15.5 7.5L19.1343 11.1343C19.5627 11.5627 19.7769 11.7769 19.9608 11.7914C20.1203 11.8039 20.2763 11.7393 20.3802 11.6176C20.5 11.4774 20.5 11.1744 20.5 10.5686V4.43137Z" stroke="black" stroke-linecap="round" stroke-linejoin="round"/>
<path d="M0.5 5.3C0.5 3.61984 0.5 2.77976 0.82698 2.13803C1.1146 1.57354 1.57354 1.1146 2.13803 0.82698C2.77976 0.5 3.61984 0.5 5.3 0.5H10.7C12.3802 0.5 13.2202 0.5 13.862 0.82698C14.4265 1.1146 14.8854 1.57354 15.173 2.13803C15.5 2.77976 15.5 3.61984 15.5 5.3V9.7C15.5 11.3802 15.5 12.2202 15.173 12.862C14.8854 13.4265 14.4265 13.8854 13.862 14.173C13.2202 14.5 12.3802 14.5 10.7 14.5H5.3C3.61984 14.5 2.77976 14.5 2.13803 14.173C1.57354 13.8854 1.1146 13.4265 0.82698 12.862C0.5 12.2202 0.5 11.3802 0.5 9.7V5.3Z" stroke="black" stroke-linecap="round" stroke-linejoin="round"/>
</svg>
