<svg width="175" height="166" viewBox="0 0 175 166" fill="none" xmlns="http://www.w3.org/2000/svg">
<circle cx="75.5" cy="90.5" r="68" stroke="#D6D6D6" stroke-width="15"/>
<mask id="mask0_111_670" style="mask-type:alpha" maskUnits="userSpaceOnUse" x="75" y="0" width="100" height="91">
<rect x="175" y="91" width="100" height="91" transform="rotate(180 175 91)" fill="#D9D9D9"/>
</mask>
<g mask="url(#mask0_111_670)">
<circle cx="75.5" cy="90.5" r="68" stroke="#5FEBEB" stroke-width="15"/>
</g>
<circle cx="75.5" cy="22.5" r="7.5" fill="#5FEBEB"/>
<circle cx="143.5" cy="90.5" r="7.5" fill="#5FEBEB"/>
<path d="M43.0966 98V83.54H53.0266L53.0166 86H46.0266V89.51H52.0966V91.92H46.0066V95.51L53.1266 95.52V98H43.0966ZM55.3047 98V87.66H58.1747V89.12C58.3347 88.8667 58.5414 88.6233 58.7947 88.39C59.0547 88.15 59.3814 87.9533 59.7747 87.8C60.168 87.6467 60.6347 87.57 61.1747 87.57C61.808 87.57 62.398 87.6933 62.9447 87.94C63.498 88.1867 63.9447 88.5767 64.2847 89.11C64.6247 89.6367 64.7947 90.3267 64.7947 91.18V98H61.8747V91.54C61.8747 90.98 61.708 90.56 61.3747 90.28C61.0414 90 60.6347 89.86 60.1547 89.86C59.8347 89.86 59.5247 89.9167 59.2247 90.03C58.9314 90.1433 58.6914 90.3133 58.5047 90.54C58.318 90.7667 58.2247 91.0467 58.2247 91.38V98H55.3047ZM69.5602 93.5C69.5535 94.0267 69.6368 94.4867 69.8102 94.88C69.9835 95.2667 70.2335 95.5667 70.5602 95.78C70.8935 95.9867 71.2935 96.09 71.7602 96.09C72.2602 96.09 72.6968 95.9833 73.0702 95.77C73.4502 95.5567 73.7135 95.2067 73.8602 94.72H76.4902C76.3768 95.4533 76.0835 96.08 75.6102 96.6C75.1435 97.12 74.5768 97.5167 73.9102 97.79C73.2435 98.0633 72.5502 98.2 71.8302 98.2C70.8102 98.2 69.9102 97.9867 69.1302 97.56C68.3568 97.1267 67.7535 96.5167 67.3202 95.73C66.8868 94.9433 66.6702 94.0167 66.6702 92.95C66.6702 91.9167 66.8668 90.9867 67.2602 90.16C67.6535 89.3267 68.2235 88.67 68.9702 88.19C69.7235 87.7033 70.6268 87.46 71.6802 87.46C72.7335 87.46 73.6168 87.6833 74.3302 88.13C75.0502 88.57 75.5902 89.1867 75.9502 89.98C76.3168 90.7667 76.5002 91.6767 76.5002 92.71V93.5H69.5602ZM69.5502 91.76H73.7702C73.7702 91.3467 73.6935 90.9667 73.5402 90.62C73.3868 90.2733 73.1535 90 72.8402 89.8C72.5335 89.6 72.1468 89.5 71.6802 89.5C71.2268 89.5 70.8402 89.61 70.5202 89.83C70.2068 90.0433 69.9668 90.3233 69.8002 90.67C69.6335 91.0167 69.5502 91.38 69.5502 91.76ZM78.5273 98V87.66H81.3373V90.11C81.504 89.5833 81.7373 89.1233 82.0373 88.73C82.344 88.33 82.714 88.02 83.1473 87.8C83.5807 87.5733 84.0707 87.46 84.6173 87.46C84.7107 87.46 84.7973 87.4667 84.8773 87.48C84.964 87.4867 85.0273 87.5 85.0673 87.52V90.3C85.0073 90.2733 84.934 90.2567 84.8473 90.25C84.7673 90.2433 84.694 90.2367 84.6273 90.23C84.054 90.1833 83.564 90.2 83.1573 90.28C82.7507 90.36 82.4207 90.4967 82.1673 90.69C81.914 90.8833 81.7307 91.12 81.6173 91.4C81.504 91.68 81.4473 91.9933 81.4473 92.34V98H78.5273ZM91.4423 101.42C89.6023 101.42 88.2023 101.187 87.2423 100.72C86.289 100.253 85.8123 99.64 85.8123 98.88C85.8123 98.5267 85.9057 98.23 86.0923 97.99C86.279 97.75 86.4957 97.56 86.7423 97.42C86.9957 97.2733 87.2257 97.1633 87.4323 97.09C87.6457 97.01 87.7757 96.9567 87.8223 96.93C87.7157 96.87 87.5623 96.7833 87.3623 96.67C87.1623 96.55 86.9757 96.39 86.8023 96.19C86.6357 95.9833 86.5523 95.7167 86.5523 95.39C86.5523 95.0233 86.7257 94.6833 87.0723 94.37C87.4257 94.0567 87.959 93.84 88.6723 93.72C87.9923 93.4 87.4757 92.9667 87.1223 92.42C86.769 91.8733 86.5923 91.3133 86.5923 90.74C86.5923 90.06 86.8057 89.4767 87.2323 88.99C87.659 88.5033 88.239 88.1333 88.9723 87.88C89.7123 87.6267 90.549 87.5 91.4823 87.5C92.1957 87.5 92.779 87.5767 93.2323 87.73C93.6857 87.8767 94.1057 88.07 94.4923 88.31C94.6457 88.25 94.849 88.1733 95.1023 88.08C95.3557 87.98 95.629 87.8733 95.9223 87.76C96.2157 87.64 96.5023 87.5233 96.7823 87.41C97.0623 87.29 97.3123 87.1833 97.5323 87.09L97.5223 89.35L95.7323 89.64C95.8057 89.82 95.8623 90.0133 95.9023 90.22C95.9423 90.4267 95.9623 90.5967 95.9623 90.73C95.9623 91.33 95.7857 91.89 95.4323 92.41C95.0857 92.93 94.5623 93.35 93.8623 93.67C93.169 93.99 92.309 94.15 91.2823 94.15C91.1557 94.15 90.9857 94.1467 90.7723 94.14C90.5657 94.1333 90.3957 94.1233 90.2623 94.11C89.869 94.13 89.599 94.18 89.4523 94.26C89.3057 94.34 89.2323 94.4333 89.2323 94.54C89.2323 94.7 89.3823 94.8067 89.6823 94.86C89.9823 94.9067 90.4357 94.95 91.0423 94.99C91.2557 95.0033 91.5523 95.02 91.9323 95.04C92.3123 95.06 92.7323 95.0867 93.1923 95.12C94.459 95.2067 95.4023 95.52 96.0223 96.06C96.649 96.5933 96.9623 97.2667 96.9623 98.08C96.9623 99.0467 96.5023 99.8433 95.5823 100.47C94.669 101.103 93.289 101.42 91.4423 101.42ZM91.9123 99.79C92.7257 99.79 93.3057 99.69 93.6523 99.49C93.999 99.29 94.1723 99.0033 94.1723 98.63C94.1723 98.3167 94.039 98.0633 93.7723 97.87C93.5057 97.67 93.1157 97.5533 92.6023 97.52L90.2323 97.36C89.9257 97.3467 89.6523 97.3933 89.4123 97.5C89.179 97.6067 88.9957 97.7533 88.8623 97.94C88.7357 98.1267 88.6723 98.3267 88.6723 98.54C88.6723 98.9733 88.9357 99.29 89.4623 99.49C89.989 99.69 90.8057 99.79 91.9123 99.79ZM91.3623 92.52C91.9157 92.52 92.359 92.37 92.6923 92.07C93.0323 91.7633 93.2023 91.35 93.2023 90.83C93.2023 90.29 93.0323 89.8567 92.6923 89.53C92.359 89.2033 91.9157 89.04 91.3623 89.04C90.8157 89.04 90.369 89.2033 90.0223 89.53C89.6823 89.8567 89.5123 90.29 89.5123 90.83C89.5123 91.3433 89.6757 91.7533 90.0023 92.06C90.3357 92.3667 90.789 92.52 91.3623 92.52ZM101.133 101.3C100.427 101.3 99.9268 101.24 99.6334 101.12C99.3468 101.007 99.2034 100.95 99.2034 100.95V99.09L100.223 99.13C100.67 99.1567 101.03 99.1333 101.303 99.06C101.577 98.9933 101.783 98.9033 101.923 98.79C102.07 98.6767 102.173 98.5567 102.233 98.43C102.293 98.31 102.337 98.2133 102.363 98.14L102.553 97.57L98.5334 87.66H101.423L103.903 94.4L106.413 87.66H109.263L105.073 98.06C104.713 98.94 104.333 99.6133 103.933 100.08C103.533 100.547 103.1 100.867 102.633 101.04C102.173 101.213 101.673 101.3 101.133 101.3Z" fill="#1B1B1B"/>
</svg>
