<svg width="154" height="154" viewBox="0 0 154 154" fill="none" xmlns="http://www.w3.org/2000/svg">
<path d="M32.6644 60.4521C29.2551 58.1735 25.2627 56.9231 21.1627 56.8499C17.5807 56.85 14.0635 57.8047 10.973 59.6157C7.88252 61.4267 5.33047 64.0285 3.57954 67.1534C1.8286 70.2783 0.942024 73.8133 1.01107 77.3947C1.08012 80.976 2.10229 84.4742 3.97237 87.5293C5.84246 90.5844 8.49289 93.0859 11.6509 94.7764C14.8089 96.467 18.3603 97.2854 21.9396 97.1475C25.519 97.0096 28.9969 95.9203 32.0154 93.9918C35.034 92.0633 37.4841 89.3653 39.1136 86.1754C43.7718 84.9698 48.0094 82.5077 51.3637 79.0579C62.3374 67.5428 53.5625 57.3578 53.5625 57.3578C48.9912 63.6332 39.4678 64.8696 32.6644 60.4521Z" fill="url(#paint0_linear_147_113)"/>
<path d="M120.046 57.3578C124.072 56.5567 127.783 54.6176 130.739 51.7707C133.274 49.2375 135.087 46.0743 135.993 42.6071C136.898 39.1398 136.863 35.4939 135.891 32.0448C134.919 28.5957 133.044 25.4682 130.461 22.9844C127.878 20.5007 124.679 18.7505 121.195 17.9142C117.71 17.0779 114.066 17.1857 110.637 18.2266C107.207 19.2674 104.118 21.2035 101.686 23.8356C99.2542 26.4677 97.5681 29.7006 96.8013 33.2011C96.0345 36.7016 96.2149 40.3433 97.3237 43.751C94.8848 47.8982 93.6275 52.6338 93.6881 57.4447C94.0691 73.3371 107.562 74.2861 107.562 74.2861C106.466 67.5429 112.12 59.0887 120.046 57.3578Z" fill="url(#paint1_linear_147_113)"/>
<path d="M57.3522 33.9467C56.5546 29.92 54.6151 26.208 51.7651 23.2537C49.2319 20.719 46.0687 18.9055 42.6015 18C39.1342 17.0945 35.4883 17.1298 32.0392 18.1021C28.5901 19.0745 25.4626 20.9488 22.9788 23.5319C20.4951 26.1151 18.7449 29.3137 17.9086 32.7983C17.0723 36.2829 17.1801 39.9274 18.2209 43.3565C19.2618 46.7855 21.1979 49.8751 23.83 52.307C26.4621 54.7388 29.6949 56.4249 33.1955 57.1917C36.696 57.9585 40.3377 57.7782 43.7453 56.6693C47.8938 59.1054 52.6286 60.3625 57.4391 60.3049C73.3315 59.924 74.2872 46.4107 74.2872 46.4107C66.5882 47.6404 59.0631 41.8862 57.3522 33.9467Z" fill="url(#paint2_linear_147_113)"/>
<path d="M96.6421 120.052C97.4396 124.079 99.3792 127.791 102.229 130.745C104.762 133.28 107.926 135.094 111.393 135.999C114.86 136.905 118.506 136.869 121.955 135.897C125.404 134.925 128.532 133.05 131.015 130.467C133.499 127.884 135.249 124.685 136.086 121.201C136.922 117.716 136.814 114.072 135.773 110.643C134.732 107.214 132.796 104.124 130.164 101.692C127.532 99.2604 124.299 97.5742 120.799 96.8074C117.298 96.0407 113.657 96.221 110.249 97.3299C106.102 94.8909 101.366 93.6336 96.5552 93.6942C80.6627 94.0752 79.707 107.495 79.707 107.495C87.406 106.305 94.9379 112.12 96.6421 120.052Z" fill="url(#paint3_linear_147_113)"/>
<path d="M33.9411 96.6479C29.9144 97.4455 26.2023 99.385 23.2481 102.235C20.7134 104.768 18.8999 107.931 17.9944 111.399C17.0889 114.866 17.1242 118.512 18.0965 121.961C19.0689 125.41 20.9432 128.538 23.5263 131.021C26.1095 133.505 29.3081 135.255 32.7927 136.091C36.2773 136.928 39.9218 136.82 43.3509 135.779C46.7799 134.738 49.8695 132.802 52.3013 130.17C54.7332 127.538 56.4193 124.305 57.1861 120.805C57.9529 117.304 57.7725 113.662 56.6637 110.255C59.0998 106.106 60.3568 101.371 60.2993 96.561C59.9184 80.6686 46.5053 79.6594 46.5053 79.6594C47.735 87.3584 41.8806 94.9437 33.9411 96.6479Z" fill="url(#paint4_linear_147_113)"/>
<path d="M121.336 93.5534C124.747 95.8272 128.738 97.0771 132.838 97.1556C136.42 97.1566 139.938 96.2029 143.029 94.3927C146.12 92.5825 148.673 89.9811 150.425 86.8564C152.177 83.7317 153.064 80.1966 152.996 76.615C152.928 73.0333 151.906 69.5346 150.036 66.479C148.167 63.4234 145.516 60.9212 142.358 59.2302C139.2 57.5391 135.649 56.7203 132.069 56.8579C128.489 56.9955 125.011 58.0846 121.992 60.0132C118.973 61.9417 116.523 64.6399 114.893 67.8301C110.236 69.0338 105.998 71.4935 102.643 74.9409C91.6695 86.4492 100.538 96.6611 100.538 96.6611C104.541 91.1408 114.506 89.1626 121.336 93.5534Z" fill="url(#paint5_linear_147_113)"/>
<path d="M93.5541 32.6637C95.8327 29.2545 97.0831 25.262 97.1563 21.1621C97.1574 17.5798 96.2037 14.062 94.3934 10.9707C92.5832 7.87947 89.9818 5.32652 86.8571 3.57466C83.7324 1.82281 80.1973 0.935357 76.6157 1.00367C73.0341 1.07197 69.5353 2.09358 66.4797 3.9633C63.4241 5.83303 60.922 8.48332 59.2309 11.6413C57.5399 14.7994 56.721 18.351 56.8586 21.9306C56.9963 25.5103 58.0854 28.9886 60.0139 32.0074C61.9424 35.0263 64.6406 37.4767 67.8308 39.1063C69.0343 43.7658 71.494 48.0055 74.9416 51.3631C86.45 62.3301 96.6752 53.4549 96.6752 53.4549C90.3997 48.877 89.1566 39.4738 93.5541 32.6637Z" fill="url(#paint6_linear_147_113)"/>
<path d="M60.4526 121.335C58.1717 124.744 56.919 128.736 56.8438 132.837C56.8427 136.419 57.7964 139.937 59.6066 143.028C61.4169 146.12 64.0182 148.673 67.1429 150.424C70.2676 152.176 73.8028 153.064 77.3844 152.995C80.966 152.927 84.4647 151.906 87.5204 150.036C90.576 148.166 93.0781 145.516 94.7692 142.358C96.4602 139.2 97.2791 135.648 97.1414 132.068C97.0038 128.489 95.9147 125.011 93.9862 121.992C92.0577 118.973 89.3594 116.522 86.1693 114.893C84.9656 110.235 82.5058 105.998 79.0584 102.643C67.5568 91.669 57.3918 100.484 57.3918 100.484C63.6672 105.055 64.8635 114.512 60.4526 121.335Z" fill="url(#paint7_linear_147_113)"/>
<path d="M132.27 33.86C124.397 25.9873 113.557 25.9271 103.76 33.86C95.2388 40.7703 88.1882 58.3937 92.3317 72.6221C93.5747 71.9538 94.771 71.1585 95.994 70.41C97.999 69.1602 100.158 68.111 102.29 67.0684C103.626 66.4001 104.963 65.7719 106.299 65.1637C106.299 45.7827 123.275 30.8258 136.48 40.0485C135.474 37.7417 134.046 35.6429 132.27 33.86Z" fill="url(#paint8_linear_147_113)"/>
<path d="M120.194 103.672C113.411 95.3113 96.3084 88.3609 82.207 92.0299C84.9337 96.3539 86.6379 101.306 87.9077 106.232C107.783 105.663 123.395 122.973 114.012 136.399C116.317 135.39 118.414 133.96 120.194 132.182C128.067 124.309 128.133 113.463 120.194 103.672Z" fill="url(#paint9_linear_147_113)"/>
<path d="M47.7288 87.1846C48.6644 107.348 31.1546 123.36 17.5879 113.917C18.5966 116.224 20.0267 118.323 21.8049 120.106C29.6777 127.978 40.5177 128.038 50.3151 120.106C58.8896 113.148 65.9737 95.3781 61.6764 81.0562C57.593 84.0435 52.5005 86.015 47.7288 87.1846Z" fill="url(#paint10_linear_147_113)"/>
<path d="M66.949 47.6273C46.6925 48.7032 30.5193 31.1133 40.0361 17.4998C37.7274 18.5085 35.6283 19.9412 33.8475 21.7235C25.9748 29.5895 25.9147 40.4362 33.8475 50.227C40.2633 58.1398 55.9018 64.7895 69.5421 62.3702C68.2305 57.5451 67.3626 52.6103 66.949 47.6273Z" fill="url(#paint11_linear_147_113)"/>
<path d="M126.436 65.4174C115.255 64.2546 97.224 72.1005 90.4272 85.7141C93.722 86.643 97.1638 87.0507 100.452 88.0999C102.119 88.6448 103.718 89.3803 105.217 90.292C118.837 75.5891 142.342 76.7186 145.222 92.9652C146.139 90.6227 146.611 88.1295 146.612 85.6138C146.592 74.4463 138.967 66.7273 126.436 65.4174Z" fill="url(#paint12_linear_147_113)"/>
<path d="M68.2053 90.3257C67.5905 95.338 65.5789 100.05 63.1128 104.561C78.484 118.074 77.6085 142.254 61.1479 145.174C63.4905 146.091 65.9837 146.563 68.4994 146.564C79.6268 146.564 87.3458 138.939 88.6557 126.408C89.8586 115.187 81.9258 97.0556 68.2053 90.3257Z" fill="url(#paint13_linear_147_113)"/>
<path d="M49.2323 63.3658C35.6589 78.4296 11.8068 77.4004 8.91304 61.0735C7.99252 63.415 7.52095 65.9089 7.52296 68.4249C7.52296 79.5523 15.1484 87.2713 27.6792 88.5812C37.5235 89.597 52.6942 83.629 60.8142 72.8892C57.1585 69.4875 53.2021 66.3866 49.2323 63.3658Z" fill="url(#paint14_linear_147_113)"/>
<path d="M83.964 62.604C86.656 58.4121 89.0435 54.0323 91.1083 49.4984C75.5567 36.0319 76.4255 11.7188 92.9328 8.79155C90.5913 7.86981 88.0976 7.39601 85.5813 7.39478C74.4473 7.39478 66.7349 15.0202 65.425 27.5577C64.309 38.2441 71.4532 55.1991 83.964 62.604Z" fill="url(#paint15_linear_147_113)"/>
<g opacity="0.38">
<g style="mix-blend-mode:screen" opacity="0.79">
<path d="M106.299 65.1572C106.09 61.12 106.683 57.0814 108.044 53.2746C109.412 49.4254 111.586 45.9121 114.419 42.9693C117.28 40.0755 120.922 37.7698 125.005 37.0747C127.019 36.723 129.085 36.8058 131.064 37.3176C133.043 37.8293 134.89 38.7583 136.48 40.042C133.128 37.9022 129.071 37.1609 125.179 37.977C123.287 38.3972 121.479 39.1338 119.833 40.1557C118.166 41.1673 116.636 42.3892 115.281 43.7913C112.548 46.6205 110.387 49.952 108.919 53.6021C107.429 57.2877 106.545 61.1896 106.299 65.1572Z" fill="url(#paint16_linear_147_113)"/>
</g>
<g style="mix-blend-mode:screen" opacity="0.79">
<path d="M87.9077 106.232C92.022 105.894 96.1621 106.394 100.078 107.702C104.037 109.008 107.669 111.153 110.724 113.991C113.731 116.844 116.151 120.52 116.933 124.684C117.321 126.728 117.262 128.833 116.757 130.852C116.253 132.872 115.316 134.757 114.012 136.379C115.093 134.685 115.826 132.793 116.17 130.813C116.515 128.833 116.462 126.804 116.017 124.844C115.555 122.913 114.771 121.074 113.698 119.404C112.638 117.719 111.364 116.178 109.909 114.819C106.965 112.087 103.517 109.956 99.7569 108.544C95.9616 107.125 91.9579 106.344 87.9077 106.232Z" fill="url(#paint17_linear_147_113)"/>
</g>
<g style="mix-blend-mode:screen" opacity="0.79">
<path d="M47.7288 87.1846C48.1373 91.3445 47.6962 95.544 46.4322 99.5283C45.1623 103.551 43.0375 107.251 40.2036 110.375C37.3499 113.456 33.6541 115.942 29.4571 116.777C27.3876 117.196 25.2513 117.154 23.2 116.653C21.1486 116.153 19.2326 115.208 17.5879 113.884C19.3217 114.981 21.2539 115.728 23.2752 116.082C25.273 116.425 27.3195 116.356 29.29 115.882C31.2397 115.39 33.0939 114.577 34.7769 113.476C36.4699 112.382 38.0133 111.072 39.3682 109.58C42.1016 106.57 44.2178 103.053 45.5968 99.2276C46.9738 95.3601 47.6944 91.2897 47.7288 87.1846Z" fill="url(#paint18_linear_147_113)"/>
</g>
<g style="mix-blend-mode:screen" opacity="0.79">
<path d="M66.9496 47.6272C62.7766 48.0677 58.5576 47.6492 54.5524 46.3975C50.5048 45.1439 46.777 43.0281 43.6255 40.1956C42.0561 38.76 40.6851 37.1216 39.5488 35.3236C38.4107 33.5221 37.6006 31.5332 37.1562 29.4491C36.7262 27.3714 36.7615 25.2242 37.2595 23.1616C37.7575 21.0991 38.7059 19.1724 40.0367 17.5198C38.9338 19.2613 38.1844 21.2029 37.8312 23.2338C37.496 25.233 37.5711 27.2794 38.0518 29.2487C38.5541 31.2047 39.3784 33.0635 40.4911 34.7489C41.593 36.4477 42.9143 37.9937 44.4208 39.3468C47.4541 42.0717 50.9945 44.1724 54.8398 45.5287C58.7289 46.9071 62.8234 47.6167 66.9496 47.6272Z" fill="url(#paint19_linear_147_113)"/>
</g>
<g style="mix-blend-mode:screen" opacity="0.79">
<path d="M105.197 90.2657C107.855 87.0723 111.136 84.4549 114.841 82.5734C118.574 80.6573 122.678 79.5699 126.87 79.3855C131.04 79.2586 135.384 80.1274 138.9 82.5066C140.651 83.6898 142.126 85.2378 143.224 87.0444C144.297 88.8353 144.98 90.8325 145.229 92.9055C144.776 90.9157 143.943 89.0322 142.776 87.3585C141.619 85.7201 140.144 84.3314 138.439 83.2751C136.727 82.2414 134.854 81.5005 132.898 81.0831C130.942 80.6521 128.938 80.4768 126.937 80.5618C122.897 80.7339 118.931 81.6967 115.262 83.3954C111.547 85.1081 108.145 87.4303 105.197 90.2657Z" fill="url(#paint20_linear_147_113)"/>
</g>
<g style="mix-blend-mode:screen" opacity="0.79">
<path d="M63.1396 104.561C66.4603 107.182 69.2041 110.461 71.1995 114.191C73.2258 117.953 74.4115 122.11 74.6747 126.374C74.7824 128.516 74.6071 130.662 74.1534 132.757C73.6927 134.862 72.8622 136.869 71.7007 138.685C70.5385 140.481 68.9908 141.995 67.17 143.117C65.3493 144.24 63.3012 144.942 61.1748 145.174C63.2019 144.715 65.1186 143.861 66.8154 142.661C68.4742 141.468 69.8726 139.949 70.9255 138.197C71.9481 136.437 72.6709 134.52 73.0641 132.523C73.4728 130.521 73.6188 128.474 73.4985 126.435C73.2525 122.325 72.1964 118.305 70.3908 114.606C68.5603 110.871 66.1083 107.474 63.1396 104.561Z" fill="url(#paint21_linear_147_113)"/>
</g>
<g style="mix-blend-mode:screen" opacity="0.79">
<path d="M49.2322 63.3659C46.59 66.6213 43.3106 69.3026 39.5951 71.2453C35.8474 73.2211 31.7159 74.3611 27.4853 74.5869C25.362 74.6823 23.2354 74.4912 21.1631 74.0188C19.0803 73.5488 17.0978 72.7115 15.3087 71.5461C13.5291 70.3643 12.0285 68.8089 10.9112 66.9882C9.83189 65.1832 9.14848 63.1694 8.90625 61.0803C9.36423 63.0876 10.2111 64.9858 11.3991 66.6674C12.573 68.3185 14.0716 69.7126 15.8032 70.7642C17.5429 71.7943 19.4426 72.5261 21.4237 72.9295C23.3993 73.35 25.4215 73.5095 27.4385 73.404C31.5142 73.193 35.5085 72.1825 39.1942 70.43C42.9124 68.6546 46.3058 66.2666 49.2322 63.3659Z" fill="url(#paint22_linear_147_113)"/>
</g>
<g style="mix-blend-mode:screen" opacity="0.79">
<path d="M91.1088 49.4986C87.7613 46.8832 84.9901 43.6046 82.9687 39.8683C80.9201 36.1007 79.7181 31.9315 79.4467 27.6515C79.3272 25.5027 79.4935 23.3475 79.9413 21.2424C80.3996 19.1311 81.2277 17.1174 82.3873 15.2944C83.5505 13.4941 85.1008 11.9761 86.9253 10.8511C88.7497 9.72613 90.8023 9.02258 92.9333 8.79175C90.8978 9.25093 88.9737 10.1096 87.2726 11.318C85.6084 12.5137 84.2091 14.0404 83.1625 15.8023C82.1368 17.57 81.4139 19.4968 81.0239 21.503C80.6223 23.5127 80.483 25.5659 80.6096 27.6114C80.8705 31.737 81.9496 35.7695 83.7841 39.474C85.6374 43.208 88.1146 46.5982 91.1088 49.4986Z" fill="url(#paint23_linear_147_113)"/>
</g>
</g>
<path d="M132.845 56.8501C122.292 56.8501 111.779 64.3753 100.812 66.0059H100.712C99.4607 66.1739 98.1873 66.044 96.9955 65.6268C95.8037 65.2096 94.7272 64.5168 93.8538 63.6049C92.9804 62.6931 92.3346 61.5878 91.969 60.3792C91.6035 59.1706 91.5285 57.8927 91.7501 56.6496C93.441 47.1261 98.2996 38.2977 103.78 33.8668C113.571 25.934 124.417 25.9941 132.283 33.8668C134.064 35.6464 135.496 37.743 136.507 40.0487C136.895 36.9999 136.58 33.9027 135.584 30.9948C134.589 28.087 132.941 25.4458 130.766 23.2741C122.893 15.4014 110.496 15.0338 102.256 23.2741C94.7776 30.7324 92.659 43.4838 86.0561 52.3924L85.996 52.4726C85.2285 53.4788 84.2338 54.2892 83.0933 54.8373C81.9527 55.3855 80.6985 55.656 79.4334 55.6267C78.1683 55.5973 76.928 55.269 75.814 54.6686C74.7001 54.0681 73.744 53.2126 73.024 52.1719C67.4904 44.2457 64.6835 34.5685 65.412 27.578C66.7219 15.0405 74.4409 7.39498 85.5816 7.39498C88.0976 7.39297 90.5915 7.86454 92.9331 8.78507C91.0485 6.35704 88.6324 4.39333 85.8704 3.04478C83.1084 1.69624 80.0741 0.998754 77.0005 1.00591C65.8731 1.00591 56.8442 9.50684 56.8442 21.1622C56.8442 31.7149 64.3694 42.2341 66.0001 53.1944C66.0001 53.1944 66.0001 53.2612 66.0001 53.2947C66.1692 54.5466 66.0402 55.8209 65.6235 57.0136C65.2068 58.2062 64.5142 59.2836 63.6022 60.1578C62.6901 61.0321 61.5844 61.6785 60.3752 62.0444C59.166 62.4103 57.8874 62.4853 56.6437 62.2634C47.1203 60.5659 38.2919 55.7073 33.861 50.2338C25.9281 40.443 25.9882 29.603 33.861 21.7303C35.6387 19.9491 37.7358 18.5185 40.0428 17.5132C36.994 17.1251 33.8968 17.4407 30.9889 18.4359C28.0811 19.431 25.4399 21.0793 23.2682 23.254C15.4089 31.1401 15.0212 43.5306 23.2615 51.7709C30.7266 59.2359 43.478 61.3478 52.3866 67.9507L52.4668 68.0109C53.473 68.7783 54.2833 69.773 54.8315 70.9136C55.3797 72.0542 55.6501 73.3083 55.6208 74.5735C55.5915 75.8386 55.2632 77.0788 54.6627 78.1928C54.0623 79.3068 53.2067 80.2628 52.166 80.9828C44.2398 86.5164 34.5627 89.33 27.5721 88.5949C15.0346 87.285 7.38911 79.5727 7.38911 68.4386C7.3871 65.9226 7.85868 63.4287 8.7792 61.0872C6.35183 62.9694 4.38839 65.3831 3.03981 68.1428C1.69123 70.9025 0.993426 73.9348 1.00005 77.0064C1.00005 88.1404 9.50098 97.1627 21.1563 97.1627C31.709 97.1627 42.2282 89.6375 53.1885 88.0135H53.2955C54.547 87.8455 55.8204 87.9754 57.0122 88.3926C58.204 88.8098 59.2804 89.5026 60.1539 90.4145C61.0273 91.3263 61.6731 92.4316 62.0387 93.6402C62.4042 94.8489 62.4792 96.1267 62.2575 97.3698C60.56 106.893 55.7014 115.722 50.2279 120.146C40.4438 128.085 29.5971 128.019 21.7244 120.146C19.9406 118.37 18.5097 116.273 17.5074 113.964C17.1192 117.014 17.4348 120.112 18.4299 123.021C19.425 125.93 21.0733 128.572 23.2482 130.745C31.1209 138.611 43.5114 138.986 51.7517 130.745C59.2167 123.28 61.3286 110.522 67.9315 101.62L67.9916 101.533C68.7591 100.527 69.7538 99.7169 70.8944 99.1687C72.035 98.6205 73.2891 98.35 74.5542 98.3794C75.8194 98.4087 77.0596 98.737 78.1736 99.3375C79.2875 99.9379 80.2436 100.793 80.9636 101.834C86.4972 109.76 89.3108 119.438 88.5757 126.435C87.239 138.966 79.5534 146.591 68.4194 146.591C65.9037 146.59 63.4104 146.118 61.0679 145.201C62.9488 147.631 65.3617 149.598 68.1214 150.95C70.8811 152.302 73.914 153.003 76.9871 153C88.1212 153 97.1434 144.499 97.1434 132.844C97.1434 122.291 89.6182 111.779 87.9942 100.812V100.711C87.8263 99.4599 87.9562 98.1864 88.3734 96.9947C88.7906 95.8029 89.4834 94.7264 90.3952 93.853C91.3071 92.9795 92.4124 92.3338 93.621 91.9682C94.8296 91.6027 96.1075 91.5277 97.3506 91.7493C106.874 93.4402 115.702 98.2988 120.127 103.779C128.066 113.57 127.999 124.416 120.127 132.282C118.35 134.066 116.252 135.499 113.945 136.506C116.995 136.894 120.093 136.579 123.002 135.584C125.911 134.589 128.553 132.94 130.726 130.765C138.592 122.893 138.966 110.495 130.726 102.255C123.261 94.7968 110.503 92.6783 101.601 86.0754L101.514 86.0152C100.508 85.2478 99.6976 84.2531 99.1495 83.1125C98.6013 81.9719 98.3308 80.7178 98.3601 79.4526C98.3895 78.1875 98.7178 76.9472 99.3182 75.8333C99.9187 74.7193 100.774 73.7633 101.815 73.0433C109.741 67.5097 119.418 64.7027 126.415 65.4312C138.946 66.7678 146.572 74.4601 146.572 85.5875C146.57 88.1031 146.099 90.5964 145.182 92.9389C147.611 91.056 149.578 88.6417 150.93 85.8811C152.281 83.1205 152.983 80.0869 152.981 77.013C153.001 65.879 144.5 56.8501 132.845 56.8501Z" fill="url(#paint24_linear_147_113)"/>
<path style="mix-blend-mode:overlay" opacity="0.75" d="M132.845 56.8501C122.292 56.8501 111.779 64.3753 100.812 66.0059H100.712C99.4607 66.1739 98.1873 66.044 96.9955 65.6268C95.8037 65.2096 94.7272 64.5168 93.8538 63.6049C92.9804 62.6931 92.3346 61.5878 91.969 60.3792C91.6035 59.1706 91.5285 57.8927 91.7501 56.6496C93.441 47.1261 98.2996 38.2977 103.78 33.8668C113.571 25.934 124.417 25.9941 132.283 33.8668C134.064 35.6464 135.496 37.743 136.507 40.0487C136.895 36.9999 136.58 33.9027 135.584 30.9948C134.589 28.087 132.941 25.4458 130.766 23.2741C122.893 15.4014 110.496 15.0338 102.256 23.2741C94.7776 30.7324 92.659 43.4838 86.0561 52.3924L85.996 52.4726C85.2285 53.4788 84.2338 54.2892 83.0933 54.8373C81.9527 55.3855 80.6985 55.656 79.4334 55.6267C78.1683 55.5973 76.928 55.269 75.814 54.6686C74.7001 54.0681 73.744 53.2126 73.024 52.1719C67.4904 44.2457 64.6835 34.5685 65.412 27.578C66.7219 15.0405 74.4409 7.39498 85.5816 7.39498C88.0976 7.39297 90.5915 7.86454 92.9331 8.78507C91.0485 6.35704 88.6324 4.39333 85.8704 3.04478C83.1084 1.69624 80.0741 0.998754 77.0005 1.00591C65.8731 1.00591 56.8442 9.50684 56.8442 21.1622C56.8442 31.7149 64.3694 42.2341 66.0001 53.1944C66.0001 53.1944 66.0001 53.2612 66.0001 53.2947C66.1692 54.5466 66.0402 55.8209 65.6235 57.0136C65.2068 58.2062 64.5142 59.2836 63.6022 60.1578C62.6901 61.0321 61.5844 61.6785 60.3752 62.0444C59.166 62.4103 57.8874 62.4853 56.6437 62.2634C47.1203 60.5659 38.2919 55.7073 33.861 50.2338C25.9281 40.443 25.9882 29.603 33.861 21.7303C35.6387 19.9491 37.7358 18.5185 40.0428 17.5132C36.994 17.1251 33.8968 17.4407 30.9889 18.4359C28.0811 19.431 25.4399 21.0793 23.2682 23.254C15.4089 31.1401 15.0212 43.5306 23.2615 51.7709C30.7266 59.2359 43.478 61.3478 52.3866 67.9507L52.4668 68.0109C53.473 68.7783 54.2833 69.773 54.8315 70.9136C55.3797 72.0542 55.6501 73.3083 55.6208 74.5735C55.5915 75.8386 55.2632 77.0788 54.6627 78.1928C54.0623 79.3068 53.2067 80.2628 52.166 80.9828C44.2398 86.5164 34.5627 89.33 27.5721 88.5949C15.0346 87.285 7.38911 79.5727 7.38911 68.4386C7.3871 65.9226 7.85868 63.4287 8.7792 61.0872C6.35183 62.9694 4.38839 65.3831 3.03981 68.1428C1.69123 70.9025 0.993426 73.9348 1.00005 77.0064C1.00005 88.1404 9.50098 97.1627 21.1563 97.1627C31.709 97.1627 42.2282 89.6375 53.1885 88.0135H53.2955C54.547 87.8455 55.8204 87.9754 57.0122 88.3926C58.204 88.8098 59.2804 89.5026 60.1539 90.4145C61.0273 91.3263 61.6731 92.4316 62.0387 93.6402C62.4042 94.8489 62.4792 96.1267 62.2575 97.3698C60.56 106.893 55.7014 115.722 50.2279 120.146C40.4438 128.085 29.5971 128.019 21.7244 120.146C19.9406 118.37 18.5097 116.273 17.5074 113.964C17.1192 117.014 17.4348 120.112 18.4299 123.021C19.425 125.93 21.0733 128.572 23.2482 130.745C31.1209 138.611 43.5114 138.986 51.7517 130.745C59.2167 123.28 61.3286 110.522 67.9315 101.62L67.9916 101.533C68.7591 100.527 69.7538 99.7169 70.8944 99.1687C72.035 98.6205 73.2891 98.35 74.5542 98.3794C75.8194 98.4087 77.0596 98.737 78.1736 99.3375C79.2875 99.9379 80.2436 100.793 80.9636 101.834C86.4972 109.76 89.3108 119.438 88.5757 126.435C87.239 138.966 79.5534 146.591 68.4194 146.591C65.9037 146.59 63.4104 146.118 61.0679 145.201C62.9488 147.631 65.3617 149.598 68.1214 150.95C70.8811 152.302 73.914 153.003 76.9871 153C88.1212 153 97.1434 144.499 97.1434 132.844C97.1434 122.291 89.6182 111.779 87.9942 100.812V100.711C87.8263 99.4599 87.9562 98.1864 88.3734 96.9947C88.7906 95.8029 89.4834 94.7264 90.3952 93.853C91.3071 92.9795 92.4124 92.3338 93.621 91.9682C94.8296 91.6027 96.1075 91.5277 97.3506 91.7493C106.874 93.4402 115.702 98.2988 120.127 103.779C128.066 113.57 127.999 124.416 120.127 132.282C118.35 134.066 116.252 135.499 113.945 136.506C116.995 136.894 120.093 136.579 123.002 135.584C125.911 134.589 128.553 132.94 130.726 130.765C138.592 122.893 138.966 110.495 130.726 102.255C123.261 94.7968 110.503 92.6783 101.601 86.0754L101.514 86.0152C100.508 85.2478 99.6976 84.2531 99.1495 83.1125C98.6013 81.9719 98.3308 80.7178 98.3601 79.4526C98.3895 78.1875 98.7178 76.9472 99.3182 75.8333C99.9187 74.7193 100.774 73.7633 101.815 73.0433C109.741 67.5097 119.418 64.7027 126.415 65.4312C138.946 66.7678 146.572 74.4601 146.572 85.5875C146.57 88.1031 146.099 90.5964 145.182 92.9389C147.611 91.056 149.578 88.6417 150.93 85.8811C152.281 83.1205 152.983 80.0869 152.981 77.013C153.001 65.879 144.5 56.8501 132.845 56.8501Z" fill="url(#paint25_linear_147_113)"/>
<path style="mix-blend-mode:screen" opacity="0.86" d="M132.845 56.8501C122.292 56.8501 111.779 64.3753 100.812 66.0059H100.712C99.4607 66.1739 98.1873 66.044 96.9955 65.6268C95.8037 65.2096 94.7273 64.5168 93.8538 63.6049C92.9804 62.6931 92.3346 61.5878 91.969 60.3792C91.6035 59.1706 91.5285 57.8927 91.7501 56.6496C93.441 47.1261 98.2996 38.2977 103.78 33.8668C113.571 25.934 124.417 25.9941 132.283 33.8668C134.064 35.6464 135.496 37.743 136.507 40.0487C136.895 36.9999 136.58 33.9027 135.584 30.9948C134.589 28.087 132.941 25.4458 130.766 23.2741C122.893 15.4014 110.496 15.0338 102.256 23.2741C94.7776 30.7324 92.659 43.4838 86.0561 52.3924L85.996 52.4726C85.2285 53.4788 84.2339 54.2892 83.0933 54.8373C81.9527 55.3855 80.6985 55.656 79.4334 55.6267C78.1683 55.5973 76.928 55.269 75.814 54.6686C74.7001 54.0681 73.744 53.2126 73.024 52.1719C67.4904 44.2457 64.6835 34.5685 65.412 27.578C66.7219 15.0405 74.4409 7.39498 85.5816 7.39498C88.0976 7.39297 90.5915 7.86454 92.9331 8.78507C91.0485 6.35704 88.6324 4.39333 85.8704 3.04478C83.1084 1.69624 80.0741 0.998754 77.0005 1.00591C65.8731 1.00591 56.8442 9.50684 56.8442 21.1622C56.8442 31.7149 64.3694 42.2341 66.0001 53.1944C66.0001 53.1944 66.0001 53.2612 66.0001 53.2947C66.1692 54.5466 66.0402 55.8209 65.6235 57.0136C65.2068 58.2062 64.5142 59.2836 63.6022 60.1578C62.6901 61.0321 61.5844 61.6785 60.3752 62.0444C59.166 62.4103 57.8874 62.4853 56.6437 62.2634C47.1203 60.5659 38.2919 55.7073 33.861 50.2338C25.9281 40.443 25.9882 29.603 33.861 21.7303C35.6387 19.9491 37.7358 18.5185 40.0428 17.5132C36.994 17.1251 33.8968 17.4407 30.9889 18.4359C28.0811 19.431 25.4399 21.0793 23.2682 23.254C15.4089 31.1401 15.0212 43.5306 23.2615 51.7709C30.7266 59.2359 43.478 61.3478 52.3866 67.9507L52.4668 68.0109C53.473 68.7783 54.2833 69.773 54.8315 70.9136C55.3797 72.0542 55.6501 73.3083 55.6208 74.5735C55.5915 75.8386 55.2632 77.0789 54.6627 78.1928C54.0623 79.3068 53.2067 80.2628 52.166 80.9828C44.2398 86.5164 34.5627 89.33 27.5721 88.5949C15.0346 87.285 7.38911 79.5727 7.38911 68.4386C7.3871 65.9226 7.85868 63.4287 8.7792 61.0872C6.35183 62.9694 4.38839 65.3831 3.03981 68.1428C1.69123 70.9026 0.993426 73.9348 1.00005 77.0064C1.00005 88.1404 9.50098 97.1627 21.1563 97.1627C31.709 97.1627 42.2282 89.6375 53.1885 88.0135H53.2955C54.547 87.8455 55.8204 87.9754 57.0122 88.3926C58.204 88.8098 59.2804 89.5026 60.1539 90.4145C61.0273 91.3263 61.6731 92.4316 62.0387 93.6402C62.4042 94.8489 62.4792 96.1267 62.2575 97.3698C60.56 106.893 55.7014 115.722 50.2279 120.146C40.4438 128.085 29.5971 128.019 21.7244 120.146C19.9406 118.37 18.5097 116.273 17.5074 113.964C17.1192 117.014 17.4348 120.112 18.4299 123.021C19.425 125.93 21.0733 128.572 23.2482 130.745C31.1209 138.611 43.5114 138.986 51.7517 130.745C59.2167 123.28 61.3286 110.522 67.9315 101.62L67.9916 101.533C68.7591 100.527 69.7538 99.7169 70.8944 99.1687C72.035 98.6205 73.2891 98.35 74.5542 98.3794C75.8194 98.4087 77.0596 98.737 78.1736 99.3375C79.2875 99.9379 80.2436 100.793 80.9636 101.834C86.4972 109.76 89.3108 119.437 88.5757 126.435C87.239 138.966 79.5534 146.591 68.4194 146.591C65.9037 146.59 63.4104 146.118 61.0679 145.201C62.9488 147.631 65.3617 149.598 68.1214 150.95C70.8811 152.302 73.914 153.003 76.9871 153C88.1212 153 97.1434 144.499 97.1434 132.844C97.1434 122.291 89.6182 111.779 87.9942 100.812V100.711C87.8263 99.4599 87.9562 98.1864 88.3734 96.9947C88.7906 95.8029 89.4834 94.7264 90.3952 93.853C91.3071 92.9795 92.4124 92.3338 93.621 91.9682C94.8296 91.6027 96.1075 91.5277 97.3506 91.7493C106.874 93.4402 115.702 98.2988 120.127 103.779C128.066 113.57 127.999 124.416 120.127 132.282C118.35 134.066 116.252 135.499 113.945 136.506C116.995 136.894 120.093 136.579 123.002 135.584C125.911 134.589 128.553 132.94 130.726 130.765C138.592 122.893 138.966 110.495 130.726 102.255C123.261 94.7968 110.503 92.6783 101.601 86.0754L101.514 86.0152C100.508 85.2478 99.6976 84.2531 99.1495 83.1125C98.6013 81.9719 98.3308 80.7178 98.3601 79.4526C98.3895 78.1875 98.7178 76.9472 99.3182 75.8333C99.9187 74.7193 100.774 73.7633 101.815 73.0433C109.741 67.5097 119.418 64.7027 126.415 65.4312C138.946 66.7678 146.572 74.4601 146.572 85.5875C146.57 88.1031 146.099 90.5964 145.182 92.9389C147.611 91.056 149.578 88.6417 150.93 85.8811C152.281 83.1205 152.983 80.0869 152.981 77.013C153.001 65.879 144.5 56.8501 132.845 56.8501Z" stroke="url(#paint26_linear_147_113)" stroke-width="0.88" stroke-miterlimit="10"/>
<defs>
<linearGradient id="paint0_linear_147_113" x1="55.1263" y1="82.9007" x2="6.07223" y2="68.4985" gradientUnits="userSpaceOnUse">
<stop stop-color="#004DAF"/>
<stop offset="0.26" stop-color="#0069B3"/>
<stop offset="0.82" stop-color="#00B2BD"/>
<stop offset="1" stop-color="#00CBC0"/>
</linearGradient>
<linearGradient id="paint1_linear_147_113" x1="96.9695" y1="72.2946" x2="125.273" y2="21.8437" gradientUnits="userSpaceOnUse">
<stop stop-color="#004DAF"/>
<stop offset="0.26" stop-color="#0069B3"/>
<stop offset="0.82" stop-color="#00B2BD"/>
<stop offset="1" stop-color="#00CBC0"/>
</linearGradient>
<linearGradient id="paint2_linear_147_113" x1="69.3617" y1="72.4348" x2="25.6207" y2="22.9663" gradientUnits="userSpaceOnUse">
<stop stop-color="#004DAF"/>
<stop offset="0.26" stop-color="#0069B3"/>
<stop offset="0.82" stop-color="#00B2BD"/>
<stop offset="1" stop-color="#00CBC0"/>
</linearGradient>
<linearGradient id="paint3_linear_147_113" x1="100.458" y1="97.3031" x2="130.118" y2="141.933" gradientUnits="userSpaceOnUse">
<stop stop-color="#004DAF"/>
<stop offset="0.26" stop-color="#0069B3"/>
<stop offset="0.82" stop-color="#00B2BD"/>
<stop offset="1" stop-color="#00CBC0"/>
</linearGradient>
<linearGradient id="paint4_linear_147_113" x1="58.3144" y1="101.025" x2="8.95288" y2="126.495" gradientUnits="userSpaceOnUse">
<stop stop-color="#004DAF"/>
<stop offset="0.26" stop-color="#0069B3"/>
<stop offset="0.82" stop-color="#00B2BD"/>
<stop offset="1" stop-color="#00CBC0"/>
</linearGradient>
<linearGradient id="paint5_linear_147_113" x1="99.0744" y1="76.8389" x2="160.185" y2="77.1263" gradientUnits="userSpaceOnUse">
<stop stop-color="#004DAF"/>
<stop offset="0.26" stop-color="#0069B3"/>
<stop offset="0.82" stop-color="#00B2BD"/>
<stop offset="1" stop-color="#00CBC0"/>
</linearGradient>
<linearGradient id="paint6_linear_147_113" x1="84.2445" y1="66.6273" x2="75.1355" y2="9.43988" gradientUnits="userSpaceOnUse">
<stop stop-color="#004DAF"/>
<stop offset="0.26" stop-color="#0069B3"/>
<stop offset="0.82" stop-color="#00B2BD"/>
<stop offset="1" stop-color="#00CBC0"/>
</linearGradient>
<linearGradient id="paint7_linear_147_113" x1="85.7416" y1="106.726" x2="58.4343" y2="148.469" gradientUnits="userSpaceOnUse">
<stop stop-color="#004DAF"/>
<stop offset="0.26" stop-color="#0069B3"/>
<stop offset="0.82" stop-color="#00B2BD"/>
<stop offset="1" stop-color="#00CBC0"/>
</linearGradient>
<linearGradient id="paint8_linear_147_113" x1="95.152" y1="63.0986" x2="140.303" y2="15.5816" gradientUnits="userSpaceOnUse">
<stop stop-color="#0090D3"/>
<stop offset="0.29" stop-color="#00ACD5"/>
<stop offset="0.91" stop-color="#00F5DB"/>
<stop offset="1" stop-color="#00FFDC"/>
</linearGradient>
<linearGradient id="paint9_linear_147_113" x1="89.2845" y1="94.8836" x2="140.477" y2="140.83" gradientUnits="userSpaceOnUse">
<stop stop-color="#0090D3"/>
<stop offset="0.29" stop-color="#00ACD5"/>
<stop offset="0.91" stop-color="#00F5DB"/>
<stop offset="1" stop-color="#00FFDC"/>
</linearGradient>
<linearGradient id="paint10_linear_147_113" x1="62.4116" y1="98.1716" x2="5.17734" y2="123.902" gradientUnits="userSpaceOnUse">
<stop stop-color="#0090D3"/>
<stop offset="0.29" stop-color="#00ACD5"/>
<stop offset="0.91" stop-color="#00F5DB"/>
<stop offset="1" stop-color="#00FFDC"/>
</linearGradient>
<linearGradient id="paint11_linear_147_113" x1="74.6146" y1="65.8989" x2="19.2115" y2="19.1772" gradientUnits="userSpaceOnUse">
<stop stop-color="#0090D3"/>
<stop offset="0.29" stop-color="#00ACD5"/>
<stop offset="0.91" stop-color="#00F5DB"/>
<stop offset="1" stop-color="#00FFDC"/>
</linearGradient>
<linearGradient id="paint12_linear_147_113" x1="102.089" y1="80.3408" x2="171.654" y2="77.7144" gradientUnits="userSpaceOnUse">
<stop stop-color="#0090D3"/>
<stop offset="0.29" stop-color="#00ACD5"/>
<stop offset="0.91" stop-color="#00F5DB"/>
<stop offset="1" stop-color="#00FFDC"/>
</linearGradient>
<linearGradient id="paint13_linear_147_113" x1="73.9127" y1="100.838" x2="76.0112" y2="166.473" gradientUnits="userSpaceOnUse">
<stop stop-color="#0090D3"/>
<stop offset="0.29" stop-color="#00ACD5"/>
<stop offset="0.91" stop-color="#00F5DB"/>
<stop offset="1" stop-color="#00FFDC"/>
</linearGradient>
<linearGradient id="paint14_linear_147_113" x1="66.174" y1="68.866" x2="-17.9798" y2="79.9132" gradientUnits="userSpaceOnUse">
<stop stop-color="#0090D3"/>
<stop offset="0.29" stop-color="#00ACD5"/>
<stop offset="0.91" stop-color="#00F5DB"/>
<stop offset="1" stop-color="#00FFDC"/>
</linearGradient>
<linearGradient id="paint15_linear_147_113" x1="89.9655" y1="58.8348" x2="67.1092" y2="-19.986" gradientUnits="userSpaceOnUse">
<stop stop-color="#0090D3"/>
<stop offset="0.29" stop-color="#00ACD5"/>
<stop offset="0.91" stop-color="#00F5DB"/>
<stop offset="1" stop-color="#00FFDC"/>
</linearGradient>
<linearGradient id="paint16_linear_147_113" x1="105.718" y1="51.0157" x2="136.821" y2="51.0157" gradientUnits="userSpaceOnUse">
<stop stop-color="#00EAC8"/>
<stop offset="0.47" stop-color="#00CDD5"/>
<stop offset="1" stop-color="#00B1E2"/>
</linearGradient>
<linearGradient id="paint17_linear_147_113" x1="87.9077" y1="121.269" x2="117.414" y2="121.269" gradientUnits="userSpaceOnUse">
<stop stop-color="#00EAC8"/>
<stop offset="0.47" stop-color="#00CDD5"/>
<stop offset="1" stop-color="#00B1E2"/>
</linearGradient>
<linearGradient id="paint18_linear_147_113" x1="17.2537" y1="102.121" x2="48.3503" y2="102.121" gradientUnits="userSpaceOnUse">
<stop stop-color="#00EAC8"/>
<stop offset="0.47" stop-color="#00CDD5"/>
<stop offset="1" stop-color="#00B1E2"/>
</linearGradient>
<linearGradient id="paint19_linear_147_113" x1="36.6483" y1="32.6504" x2="66.983" y2="32.6504" gradientUnits="userSpaceOnUse">
<stop stop-color="#00EAC8"/>
<stop offset="0.47" stop-color="#00CDD5"/>
<stop offset="1" stop-color="#00B1E2"/>
</linearGradient>
<linearGradient id="paint20_linear_147_113" x1="104.769" y1="86.1689" x2="145.777" y2="86.1689" gradientUnits="userSpaceOnUse">
<stop stop-color="#00EAC8"/>
<stop offset="0.47" stop-color="#00CDD5"/>
<stop offset="1" stop-color="#00B1E2"/>
</linearGradient>
<linearGradient id="paint21_linear_147_113" x1="61.0746" y1="124.864" x2="74.7215" y2="124.864" gradientUnits="userSpaceOnUse">
<stop stop-color="#00EAC8"/>
<stop offset="0.47" stop-color="#00CDD5"/>
<stop offset="1" stop-color="#00B1E2"/>
</linearGradient>
<linearGradient id="paint22_linear_147_113" x1="8.33818" y1="67.837" x2="49.6666" y2="67.837" gradientUnits="userSpaceOnUse">
<stop stop-color="#00EAC8"/>
<stop offset="0.47" stop-color="#00CDD5"/>
<stop offset="1" stop-color="#00B1E2"/>
</linearGradient>
<linearGradient id="paint23_linear_147_113" x1="79.3932" y1="29.1552" x2="93.0402" y2="29.1552" gradientUnits="userSpaceOnUse">
<stop stop-color="#00EAC8"/>
<stop offset="0.47" stop-color="#00CDD5"/>
<stop offset="1" stop-color="#00B1E2"/>
</linearGradient>
<linearGradient id="paint24_linear_147_113" x1="77.0005" y1="0.237355" x2="77.0005" y2="151.456" gradientUnits="userSpaceOnUse">
<stop stop-color="#00EAC8"/>
<stop offset="0.47" stop-color="#00CDD5"/>
<stop offset="1" stop-color="#00B1E2"/>
</linearGradient>
<linearGradient id="paint25_linear_147_113" x1="77.0005" y1="0.237355" x2="77.0005" y2="151.456" gradientUnits="userSpaceOnUse">
<stop stop-color="#00EAC8"/>
<stop offset="0.47" stop-color="#00CDD5"/>
<stop offset="1" stop-color="#00B1E2"/>
</linearGradient>
<linearGradient id="paint26_linear_147_113" x1="77.0005" y1="0.711857" x2="77.0005" y2="153.301" gradientUnits="userSpaceOnUse">
<stop stop-color="#00EAC8"/>
<stop offset="0.47" stop-color="#00CDD5"/>
<stop offset="1" stop-color="#00B1E2"/>
</linearGradient>
</defs>
</svg>
