<svg width="12" height="18" viewBox="0 0 12 18" fill="none" xmlns="http://www.w3.org/2000/svg">
<path d="M8.14286 1V2.12C8.14286 2.56804 8.14286 2.79206 8.065 2.96319C7.99652 3.11372 7.88725 3.23611 7.75285 3.31281C7.60006 3.4 7.40004 3.4 7 3.4H5C4.59996 3.4 4.39994 3.4 4.24715 3.31281C4.11275 3.23611 4.00348 3.11372 3.935 2.96319C3.85714 2.79206 3.85714 2.56804 3.85714 2.12V1M3.28571 17H8.71429C9.51436 17 9.9144 17 10.22 16.8256C10.4888 16.6722 10.7073 16.4274 10.8443 16.1264C11 15.7841 11 15.3361 11 14.44V3.56C11 2.66392 11 2.21587 10.8443 1.87362C10.7073 1.57256 10.4888 1.32779 10.22 1.17439C9.9144 1 9.51436 1 8.71429 1H3.28571C2.48564 1 2.0856 1 1.78001 1.17439C1.51121 1.32779 1.29267 1.57256 1.1557 1.87362C1 2.21587 1 2.66392 1 3.56V14.44C1 15.3361 1 15.7841 1.1557 16.1264C1.29267 16.4274 1.51121 16.6722 1.78001 16.8256C2.0856 17 2.48564 17 3.28571 17Z" stroke="#1B1B1B" stroke-width="1.5" stroke-linecap="round" stroke-linejoin="round"/>
</svg>
