<svg width="872" height="24" viewBox="0 0 872 24" fill="none" xmlns="http://www.w3.org/2000/svg">
<path d="M21.3332 6.155H23.5382V15.1475H28.2482V17H21.3332V6.155ZM32.955 17.15C32.195 17.15 31.5325 16.9875 30.9675 16.6625C30.4075 16.3375 29.9725 15.8775 29.6625 15.2825C29.3575 14.6875 29.205 13.9825 29.205 13.1675C29.205 12.3525 29.3575 11.64 29.6625 11.03C29.9725 10.42 30.4075 9.945 30.9675 9.605C31.5325 9.265 32.1975 9.095 32.9625 9.095C33.7275 9.095 34.39 9.2625 34.95 9.5975C35.51 9.9275 35.9425 10.3975 36.2475 11.0075C36.5525 11.6175 36.705 12.3375 36.705 13.1675C36.705 13.9475 36.555 14.6375 36.255 15.2375C35.96 15.8325 35.5325 16.3 34.9725 16.64C34.4175 16.98 33.745 17.15 32.955 17.15ZM32.9625 15.5225C33.3475 15.5225 33.6575 15.41 33.8925 15.185C34.1275 14.96 34.2975 14.665 34.4025 14.3C34.5125 13.93 34.5675 13.5275 34.5675 13.0925C34.5675 12.6825 34.5175 12.295 34.4175 11.93C34.3225 11.565 34.1575 11.27 33.9225 11.045C33.6875 10.82 33.3675 10.7075 32.9625 10.7075C32.5775 10.7075 32.265 10.815 32.025 11.03C31.79 11.24 31.6175 11.5275 31.5075 11.8925C31.3975 12.2525 31.3425 12.6525 31.3425 13.0925C31.3425 13.4975 31.3925 13.8875 31.4925 14.2625C31.5925 14.6325 31.76 14.935 31.995 15.17C32.23 15.405 32.5525 15.5225 32.9625 15.5225ZM48.5378 9.245L45.9878 17H44.2478L42.8003 12.305L41.3603 17H39.6653L37.1528 9.245H39.0878L40.5728 14.0525H40.6328L42.0578 9.245H43.6178L45.0578 14.0525H45.1178L46.5578 9.245H48.5378ZM53.0617 17V6.155H60.5092L60.5017 8H55.2592V10.6325H59.8117V12.44H55.2442V15.1325L60.5842 15.14V17H53.0617ZM62.2178 17V9.245H64.3703V10.34C64.4903 10.15 64.6453 9.9675 64.8353 9.7925C65.0303 9.6125 65.2753 9.465 65.5703 9.35C65.8653 9.235 66.2153 9.1775 66.6203 9.1775C67.0953 9.1775 67.5378 9.27 67.9478 9.455C68.3628 9.64 68.6978 9.9325 68.9528 10.3325C69.2078 10.7275 69.3353 11.245 69.3353 11.885V17H67.1453V12.155C67.1453 11.735 67.0203 11.42 66.7703 11.21C66.5203 11 66.2153 10.895 65.8553 10.895C65.6153 10.895 65.3828 10.9375 65.1578 11.0225C64.9378 11.1075 64.7578 11.235 64.6178 11.405C64.4778 11.575 64.4078 11.785 64.4078 12.035V17H62.2178ZM72.9094 13.625C72.9044 14.02 72.9669 14.365 73.0969 14.66C73.2269 14.95 73.4144 15.175 73.6594 15.335C73.9094 15.49 74.2094 15.5675 74.5594 15.5675C74.9344 15.5675 75.2619 15.4875 75.5419 15.3275C75.8269 15.1675 76.0244 14.905 76.1344 14.54H78.1069C78.0219 15.09 77.8019 15.56 77.4469 15.95C77.0969 16.34 76.6719 16.6375 76.1719 16.8425C75.6719 17.0475 75.1519 17.15 74.6119 17.15C73.8469 17.15 73.1719 16.99 72.5869 16.67C72.0069 16.345 71.5544 15.8875 71.2294 15.2975C70.9044 14.7075 70.7419 14.0125 70.7419 13.2125C70.7419 12.4375 70.8894 11.74 71.1844 11.12C71.4794 10.495 71.9069 10.0025 72.4669 9.6425C73.0319 9.2775 73.7094 9.095 74.4994 9.095C75.2894 9.095 75.9519 9.2625 76.4869 9.5975C77.0269 9.9275 77.4319 10.39 77.7019 10.985C77.9769 11.575 78.1144 12.2575 78.1144 13.0325V13.625H72.9094ZM72.9019 12.32H76.0669C76.0669 12.01 76.0094 11.725 75.8944 11.465C75.7794 11.205 75.6044 11 75.3694 10.85C75.1394 10.7 74.8494 10.625 74.4994 10.625C74.1594 10.625 73.8694 10.7075 73.6294 10.8725C73.3944 11.0325 73.2144 11.2425 73.0894 11.5025C72.9644 11.7625 72.9019 12.035 72.9019 12.32ZM79.6348 17V9.245H81.7423V11.0825C81.8673 10.6875 82.0423 10.3425 82.2673 10.0475C82.4973 9.7475 82.7748 9.515 83.0998 9.35C83.4248 9.18 83.7923 9.095 84.2023 9.095C84.2723 9.095 84.3373 9.1 84.3973 9.11C84.4623 9.115 84.5098 9.125 84.5398 9.14V11.225C84.4948 11.205 84.4398 11.1925 84.3748 11.1875C84.3148 11.1825 84.2598 11.1775 84.2098 11.1725C83.7798 11.1375 83.4123 11.15 83.1073 11.21C82.8023 11.27 82.5548 11.3725 82.3648 11.5175C82.1748 11.6625 82.0373 11.84 81.9523 12.05C81.8673 12.26 81.8248 12.495 81.8248 12.755V17H79.6348ZM89.321 19.565C87.941 19.565 86.891 19.39 86.171 19.04C85.456 18.69 85.0985 18.23 85.0985 17.66C85.0985 17.395 85.1685 17.1725 85.3085 16.9925C85.4485 16.8125 85.611 16.67 85.796 16.565C85.986 16.455 86.1585 16.3725 86.3135 16.3175C86.4735 16.2575 86.571 16.2175 86.606 16.1975C86.526 16.1525 86.411 16.0875 86.261 16.0025C86.111 15.9125 85.971 15.7925 85.841 15.6425C85.716 15.4875 85.6535 15.2875 85.6535 15.0425C85.6535 14.7675 85.7835 14.5125 86.0435 14.2775C86.3085 14.0425 86.7085 13.88 87.2435 13.79C86.7335 13.55 86.346 13.225 86.081 12.815C85.816 12.405 85.6835 11.985 85.6835 11.555C85.6835 11.045 85.8435 10.6075 86.1635 10.2425C86.4835 9.8775 86.9185 9.6 87.4685 9.41C88.0235 9.22 88.651 9.125 89.351 9.125C89.886 9.125 90.3235 9.1825 90.6635 9.2975C91.0035 9.4075 91.3185 9.5525 91.6085 9.7325C91.7235 9.6875 91.876 9.63 92.066 9.56C92.256 9.485 92.461 9.405 92.681 9.32C92.901 9.23 93.116 9.1425 93.326 9.0575C93.536 8.9675 93.7235 8.8875 93.8885 8.8175L93.881 10.5125L92.5385 10.73C92.5935 10.865 92.636 11.01 92.666 11.165C92.696 11.32 92.711 11.4475 92.711 11.5475C92.711 11.9975 92.5785 12.4175 92.3135 12.8075C92.0535 13.1975 91.661 13.5125 91.136 13.7525C90.616 13.9925 89.971 14.1125 89.201 14.1125C89.106 14.1125 88.9785 14.11 88.8185 14.105C88.6635 14.1 88.536 14.0925 88.436 14.0825C88.141 14.0975 87.9385 14.135 87.8285 14.195C87.7185 14.255 87.6635 14.325 87.6635 14.405C87.6635 14.525 87.776 14.605 88.001 14.645C88.226 14.68 88.566 14.7125 89.021 14.7425C89.181 14.7525 89.4035 14.765 89.6885 14.78C89.9735 14.795 90.2885 14.815 90.6335 14.84C91.5835 14.905 92.291 15.14 92.756 15.545C93.226 15.945 93.461 16.45 93.461 17.06C93.461 17.785 93.116 18.3825 92.426 18.8525C91.741 19.3275 90.706 19.565 89.321 19.565ZM89.6735 18.3425C90.2835 18.3425 90.7185 18.2675 90.9785 18.1175C91.2385 17.9675 91.3685 17.7525 91.3685 17.4725C91.3685 17.2375 91.2685 17.0475 91.0685 16.9025C90.8685 16.7525 90.576 16.665 90.191 16.64L88.4135 16.52C88.1835 16.51 87.9785 16.545 87.7985 16.625C87.6235 16.705 87.486 16.815 87.386 16.955C87.291 17.095 87.2435 17.245 87.2435 17.405C87.2435 17.73 87.441 17.9675 87.836 18.1175C88.231 18.2675 88.8435 18.3425 89.6735 18.3425ZM89.261 12.89C89.676 12.89 90.0085 12.7775 90.2585 12.5525C90.5135 12.3225 90.641 12.0125 90.641 11.6225C90.641 11.2175 90.5135 10.8925 90.2585 10.6475C90.0085 10.4025 89.676 10.28 89.261 10.28C88.851 10.28 88.516 10.4025 88.256 10.6475C88.001 10.8925 87.8735 11.2175 87.8735 11.6225C87.8735 12.0075 87.996 12.315 88.241 12.545C88.491 12.775 88.831 12.89 89.261 12.89ZM96.5893 19.475C96.0593 19.475 95.6843 19.43 95.4643 19.34C95.2493 19.255 95.1418 19.2125 95.1418 19.2125V17.8175L95.9068 17.8475C96.2418 17.8675 96.5118 17.85 96.7168 17.795C96.9218 17.745 97.0768 17.6775 97.1818 17.5925C97.2918 17.5075 97.3693 17.4175 97.4143 17.3225C97.4593 17.2325 97.4918 17.16 97.5118 17.105L97.6543 16.6775L94.6393 9.245H96.8068L98.6668 14.3L100.549 9.245H102.687L99.5443 17.045C99.2743 17.705 98.9893 18.21 98.6893 18.56C98.3893 18.91 98.0643 19.15 97.7143 19.28C97.3693 19.41 96.9943 19.475 96.5893 19.475Z" fill="#1B1B1B"/>
<path d="M775.987 17V6.155H783.435L783.427 8H778.185V10.6325H782.737V12.44H778.17V15.1325L783.51 15.14V17H775.987ZM785.144 17V9.245H787.296V10.34C787.416 10.15 787.571 9.9675 787.761 9.7925C787.956 9.6125 788.201 9.465 788.496 9.35C788.791 9.235 789.141 9.1775 789.546 9.1775C790.021 9.1775 790.464 9.27 790.874 9.455C791.289 9.64 791.624 9.9325 791.879 10.3325C792.134 10.7275 792.261 11.245 792.261 11.885V17H790.071V12.155C790.071 11.735 789.946 11.42 789.696 11.21C789.446 11 789.141 10.895 788.781 10.895C788.541 10.895 788.309 10.9375 788.084 11.0225C787.864 11.1075 787.684 11.235 787.544 11.405C787.404 11.575 787.334 11.785 787.334 12.035V17H785.144ZM795.835 13.625C795.83 14.02 795.893 14.365 796.023 14.66C796.153 14.95 796.34 15.175 796.585 15.335C796.835 15.49 797.135 15.5675 797.485 15.5675C797.86 15.5675 798.188 15.4875 798.468 15.3275C798.753 15.1675 798.95 14.905 799.06 14.54H801.033C800.948 15.09 800.728 15.56 800.373 15.95C800.023 16.34 799.598 16.6375 799.098 16.8425C798.598 17.0475 798.078 17.15 797.538 17.15C796.773 17.15 796.098 16.99 795.513 16.67C794.933 16.345 794.48 15.8875 794.155 15.2975C793.83 14.7075 793.668 14.0125 793.668 13.2125C793.668 12.4375 793.815 11.74 794.11 11.12C794.405 10.495 794.833 10.0025 795.393 9.6425C795.958 9.2775 796.635 9.095 797.425 9.095C798.215 9.095 798.878 9.2625 799.413 9.5975C799.953 9.9275 800.358 10.39 800.628 10.985C800.903 11.575 801.04 12.2575 801.04 13.0325V13.625H795.835ZM795.828 12.32H798.993C798.993 12.01 798.935 11.725 798.82 11.465C798.705 11.205 798.53 11 798.295 10.85C798.065 10.7 797.775 10.625 797.425 10.625C797.085 10.625 796.795 10.7075 796.555 10.8725C796.32 11.0325 796.14 11.2425 796.015 11.5025C795.89 11.7625 795.828 12.035 795.828 12.32ZM802.561 17V9.245H804.668V11.0825C804.793 10.6875 804.968 10.3425 805.193 10.0475C805.423 9.7475 805.701 9.515 806.026 9.35C806.351 9.18 806.718 9.095 807.128 9.095C807.198 9.095 807.263 9.1 807.323 9.11C807.388 9.115 807.436 9.125 807.466 9.14V11.225C807.421 11.205 807.366 11.1925 807.301 11.1875C807.241 11.1825 807.186 11.1775 807.136 11.1725C806.706 11.1375 806.338 11.15 806.033 11.21C805.728 11.27 805.481 11.3725 805.291 11.5175C805.101 11.6625 804.963 11.84 804.878 12.05C804.793 12.26 804.751 12.495 804.751 12.755V17H802.561ZM812.247 19.565C810.867 19.565 809.817 19.39 809.097 19.04C808.382 18.69 808.024 18.23 808.024 17.66C808.024 17.395 808.094 17.1725 808.234 16.9925C808.374 16.8125 808.537 16.67 808.722 16.565C808.912 16.455 809.084 16.3725 809.239 16.3175C809.399 16.2575 809.497 16.2175 809.532 16.1975C809.452 16.1525 809.337 16.0875 809.187 16.0025C809.037 15.9125 808.897 15.7925 808.767 15.6425C808.642 15.4875 808.579 15.2875 808.579 15.0425C808.579 14.7675 808.709 14.5125 808.969 14.2775C809.234 14.0425 809.634 13.88 810.169 13.79C809.659 13.55 809.272 13.225 809.007 12.815C808.742 12.405 808.609 11.985 808.609 11.555C808.609 11.045 808.769 10.6075 809.089 10.2425C809.409 9.8775 809.844 9.6 810.394 9.41C810.949 9.22 811.577 9.125 812.277 9.125C812.812 9.125 813.249 9.1825 813.589 9.2975C813.929 9.4075 814.244 9.5525 814.534 9.7325C814.649 9.6875 814.802 9.63 814.992 9.56C815.182 9.485 815.387 9.405 815.607 9.32C815.827 9.23 816.042 9.1425 816.252 9.0575C816.462 8.9675 816.649 8.8875 816.814 8.8175L816.807 10.5125L815.464 10.73C815.519 10.865 815.562 11.01 815.592 11.165C815.622 11.32 815.637 11.4475 815.637 11.5475C815.637 11.9975 815.504 12.4175 815.239 12.8075C814.979 13.1975 814.587 13.5125 814.062 13.7525C813.542 13.9925 812.897 14.1125 812.127 14.1125C812.032 14.1125 811.904 14.11 811.744 14.105C811.589 14.1 811.462 14.0925 811.362 14.0825C811.067 14.0975 810.864 14.135 810.754 14.195C810.644 14.255 810.589 14.325 810.589 14.405C810.589 14.525 810.702 14.605 810.927 14.645C811.152 14.68 811.492 14.7125 811.947 14.7425C812.107 14.7525 812.329 14.765 812.614 14.78C812.899 14.795 813.214 14.815 813.559 14.84C814.509 14.905 815.217 15.14 815.682 15.545C816.152 15.945 816.387 16.45 816.387 17.06C816.387 17.785 816.042 18.3825 815.352 18.8525C814.667 19.3275 813.632 19.565 812.247 19.565ZM812.599 18.3425C813.209 18.3425 813.644 18.2675 813.904 18.1175C814.164 17.9675 814.294 17.7525 814.294 17.4725C814.294 17.2375 814.194 17.0475 813.994 16.9025C813.794 16.7525 813.502 16.665 813.117 16.64L811.339 16.52C811.109 16.51 810.904 16.545 810.724 16.625C810.549 16.705 810.412 16.815 810.312 16.955C810.217 17.095 810.169 17.245 810.169 17.405C810.169 17.73 810.367 17.9675 810.762 18.1175C811.157 18.2675 811.769 18.3425 812.599 18.3425ZM812.187 12.89C812.602 12.89 812.934 12.7775 813.184 12.5525C813.439 12.3225 813.567 12.0125 813.567 11.6225C813.567 11.2175 813.439 10.8925 813.184 10.6475C812.934 10.4025 812.602 10.28 812.187 10.28C811.777 10.28 811.442 10.4025 811.182 10.6475C810.927 10.8925 810.799 11.2175 810.799 11.6225C810.799 12.0075 810.922 12.315 811.167 12.545C811.417 12.775 811.757 12.89 812.187 12.89ZM820.278 9.245V17H818.186V9.245H820.278ZM820.301 6.1625V8.135H818.171V6.1625H820.301ZM821.798 17V15.7775L825.623 10.775H821.993V9.245H828.278V10.4675L824.445 15.47H828.3V17H821.798ZM831.358 13.625C831.353 14.02 831.415 14.365 831.545 14.66C831.675 14.95 831.863 15.175 832.108 15.335C832.358 15.49 832.658 15.5675 833.008 15.5675C833.383 15.5675 833.71 15.4875 833.99 15.3275C834.275 15.1675 834.473 14.905 834.583 14.54H836.555C836.47 15.09 836.25 15.56 835.895 15.95C835.545 16.34 835.12 16.6375 834.62 16.8425C834.12 17.0475 833.6 17.15 833.06 17.15C832.295 17.15 831.62 16.99 831.035 16.67C830.455 16.345 830.003 15.8875 829.678 15.2975C829.353 14.7075 829.19 14.0125 829.19 13.2125C829.19 12.4375 829.338 11.74 829.633 11.12C829.928 10.495 830.355 10.0025 830.915 9.6425C831.48 9.2775 832.158 9.095 832.948 9.095C833.738 9.095 834.4 9.2625 834.935 9.5975C835.475 9.9275 835.88 10.39 836.15 10.985C836.425 11.575 836.563 12.2575 836.563 13.0325V13.625H831.358ZM831.35 12.32H834.515C834.515 12.01 834.458 11.725 834.343 11.465C834.228 11.205 834.053 11 833.818 10.85C833.588 10.7 833.298 10.625 832.948 10.625C832.608 10.625 832.318 10.7075 832.078 10.8725C831.843 11.0325 831.663 11.2425 831.538 11.5025C831.413 11.7625 831.35 12.035 831.35 12.32ZM840.963 17.15C839.923 17.15 839.113 16.7925 838.533 16.0775C837.953 15.3575 837.663 14.3575 837.663 13.0775C837.663 12.2675 837.781 11.565 838.016 10.97C838.251 10.375 838.598 9.915 839.058 9.59C839.518 9.26 840.081 9.095 840.746 9.095C841.026 9.095 841.286 9.1275 841.526 9.1925C841.771 9.2525 841.993 9.3375 842.193 9.4475C842.393 9.5575 842.568 9.685 842.718 9.83C842.868 9.975 842.991 10.13 843.086 10.295V5.855H845.283V17H843.693L843.446 15.41C843.376 15.625 843.278 15.835 843.153 16.04C843.028 16.245 842.868 16.4325 842.673 16.6025C842.478 16.7675 842.238 16.9 841.953 17C841.673 17.1 841.343 17.15 840.963 17.15ZM841.443 15.575C841.993 15.575 842.403 15.3825 842.673 14.9975C842.948 14.6125 843.086 13.9625 843.086 13.0475C843.081 12.5175 843.018 12.0775 842.898 11.7275C842.778 11.3775 842.598 11.1175 842.358 10.9475C842.123 10.7725 841.823 10.685 841.458 10.685C840.983 10.685 840.588 10.8675 840.273 11.2325C839.958 11.5925 839.801 12.1975 839.801 13.0475C839.801 13.9125 839.948 14.55 840.243 14.96C840.538 15.37 840.938 15.575 841.443 15.575Z" fill="#1B1B1B"/>
<rect x="128" y="6" width="563" height="12" rx="6" fill="#828282"/>
<rect x="687" y="6" width="56" height="12" rx="6" fill="#D6D6D6"/>
<circle cx="690" cy="12" r="12" fill="#828282"/>
</svg>
