<svg width="209" height="38" viewBox="0 0 209 38" fill="none" xmlns="http://www.w3.org/2000/svg">
<g clip-path="url(#clip0_147_368)">
<path d="M53.5606 23.1541H48.2285L46.1376 26.7729L44.0467 23.1541H31.7589V7.17771H53.5606V23.1541ZM24.252 16.4071L10.8319 24.0453C10.2987 24.3504 9.86137 24.0992 9.86137 23.4831V8.22446C9.86137 7.60837 10.2987 7.35715 10.8319 7.66221L24.252 15.3005C24.7852 15.6055 24.7852 16.102 24.252 16.4071ZM57.7543 24.2487V6.08311C57.7543 4.3784 56.3464 2.99071 54.615 2.99071H31.705V1.11255C31.705 0.496458 31.2077 0 30.5906 0H1.11435C0.497262 0 0 0.496458 0 1.11255V30.595C0 31.2111 0.497262 31.7075 1.11435 31.7075H13.0726L16.0562 37.5873C16.3318 38.1376 16.7871 38.1376 17.0627 37.5873L20.0463 31.7075H30.5906C31.2077 31.7075 31.705 31.2111 31.705 30.595V27.3471H41.6263L44.1186 31.6597C44.5379 32.4253 45.3048 32.8978 46.1436 32.8978C46.9823 32.8978 47.7492 32.4253 48.1626 31.6597L50.6549 27.3471H54.615C56.3464 27.3471 57.7543 25.9594 57.7543 24.2547M94.0545 9.73178C94.3421 8.69699 94.4859 7.70408 94.4859 6.74705C94.4859 6.20872 94.384 5.86778 94.1743 5.71824C93.9646 5.56871 93.5453 5.49693 92.9222 5.49693C91.5622 5.49693 89.9985 5.72422 88.2251 6.17283C86.4518 6.62742 84.4687 7.49473 82.27 8.78073C82.3598 7.49473 82.3598 6.48387 82.27 5.75413C76.9798 5.90965 74.1041 6.08311 73.6428 6.27452C73.1815 6.46592 72.9538 6.87266 72.9538 7.50071C72.9538 8.19455 73.1096 8.89438 73.4271 9.58823C74.5774 9.58823 75.3802 10.0309 75.8415 10.9161C76.3028 11.8014 76.5305 14.6784 76.5305 19.5413C76.5305 22.9148 76.4885 25.8756 76.3987 28.4297H74.4935C73.9543 28.4297 73.5649 28.5493 73.3193 28.7826C73.0736 29.0159 72.9538 29.4047 72.9538 29.943C72.9538 30.583 73.1096 31.2709 73.4271 32.0006H86.7453C87.4762 32.0006 87.9675 31.881 88.2191 31.6358C88.4708 31.3905 88.5966 30.9658 88.5966 30.3557C88.5966 29.6439 88.4408 28.998 88.1293 28.4237H84.0314C83.9415 25.8697 83.8996 22.8311 83.8996 19.3021C83.8996 15.444 84.2411 13.0515 84.93 12.1184C85.619 11.1853 86.6075 10.7247 87.8956 10.7247C88.7284 11.8193 89.2197 12.3995 89.3694 12.4713C89.5192 12.5431 90.0524 12.5072 90.9751 12.3696C91.8977 12.232 92.5687 12.0167 93.0001 11.7176C93.4254 11.4245 93.7849 10.7606 94.0725 9.7258M105.533 16.9932C105.551 14.4033 105.899 12.5909 106.576 11.5442C107.253 10.4974 108.235 9.983 109.53 9.983C110.746 9.983 111.698 10.4137 112.375 11.275C113.052 12.1363 113.394 13.3446 113.394 14.9117C113.394 15.5397 113.31 15.9824 113.136 16.2515C112.962 16.5207 112.363 16.7121 111.345 16.8258C110.326 16.9394 108.853 16.9932 106.917 16.9932H105.533ZM107.127 25.9474C106.151 24.6554 105.641 22.867 105.587 20.5881H115.299C117.647 20.5881 119.169 20.2172 119.87 19.4695C120.565 18.7219 120.913 17.4717 120.913 15.7192C120.913 12.1722 120.092 9.58224 118.456 7.93735C116.821 6.29246 114.191 5.473 110.572 5.473C106.516 5.473 103.281 6.76499 100.872 9.34299C98.464 11.921 97.2538 15.4979 97.2538 20.0677C97.2538 24.6375 98.3262 27.6162 100.465 29.5303C102.604 31.4444 106.043 32.3954 110.776 32.3954C113.526 32.3954 115.922 32.1203 117.971 31.5759C120.02 31.0316 121.038 30.0626 121.038 28.669C121.038 27.6462 120.583 26.6891 119.678 25.8039C117.138 27.1975 114.664 27.8914 112.261 27.8914C109.859 27.8914 108.092 27.2454 107.115 25.9474M132.709 12.2978C132.709 11.5501 132.967 10.9759 133.482 10.5752C133.997 10.1744 134.782 9.97702 135.843 9.97702C137.844 9.97702 140.725 10.8025 144.488 12.4533C145.482 11.1853 145.973 9.93515 145.973 8.69699C145.973 7.53062 145.261 6.70518 143.835 6.20872C142.409 5.71226 140.378 5.46702 137.754 5.46702C133.907 5.46702 130.9 6.20274 128.731 7.66819C126.562 9.13962 125.478 11.1015 125.478 13.5719C125.478 15.3304 126.023 16.7659 127.107 17.8845C128.198 19.003 130.007 20.0497 132.553 21.0247C134.92 21.9279 136.639 22.6756 137.712 23.2677C138.784 23.8599 139.317 24.6495 139.317 25.6424C139.317 26.4917 139.012 27.1018 138.407 27.4667C137.796 27.8316 136.945 28.011 135.849 28.011C133.17 28.011 130.097 27.2753 126.634 25.7979C125.783 26.8387 125.358 27.9034 125.358 28.98C125.376 30.4215 126.095 31.3726 127.527 31.8332C128.953 32.2937 131.349 32.521 134.704 32.521C138.341 32.521 141.229 31.8272 143.361 30.4335C145.494 29.0458 146.561 27.048 146.561 24.4401C146.561 22.5081 145.95 20.9529 144.721 19.7746C143.493 18.5903 141.426 17.5076 138.521 16.5147C136.034 15.6295 134.447 14.8997 133.758 14.3255C133.069 13.7513 132.727 13.0754 132.727 12.2918M167.829 19.8105C167.829 23.0405 167.488 25.2177 166.799 26.3422C166.11 27.4607 165.061 28.023 163.653 28.023C162.018 28.023 160.819 27.2693 160.065 25.756C159.31 24.2427 158.926 21.7245 158.926 18.1955C158.926 14.9655 159.268 12.7883 159.957 11.6638C160.646 10.5453 161.694 9.983 163.102 9.983C164.738 9.983 165.936 10.7367 166.691 12.25C167.446 13.7633 167.829 16.2814 167.829 19.8105ZM172.502 28.5553C174.887 25.9056 176.079 22.1731 176.079 17.3581C176.079 13.5001 175.096 10.5572 173.131 8.52353C171.166 6.48985 168.23 5.473 164.33 5.473C159.999 5.473 156.632 6.80088 154.241 9.45065C151.845 12.1004 150.653 15.8328 150.653 20.6479C150.653 24.5059 151.641 27.4547 153.618 29.4825C155.595 31.5161 158.531 32.533 162.431 32.533C166.763 32.533 170.124 31.2051 172.508 28.5613M209 30.3916C209 29.7157 208.868 29.0638 208.611 28.4357C207.568 28.4536 206.885 28.1306 206.574 27.4607C206.262 26.7908 206.106 22.1851 206.106 13.6317C206.106 10.3658 205.507 8.19455 204.321 7.11192C203.129 6.03526 201.307 5.49693 198.851 5.49693C197.665 5.49693 196.203 5.74217 194.454 6.23863C192.704 6.73509 190.883 7.57249 188.984 8.75083C189.068 7.48276 189.068 6.48387 188.984 5.75413C183.694 5.90965 180.818 6.08311 180.356 6.27452C179.895 6.46592 179.668 6.87266 179.668 7.50071C179.668 8.19455 179.823 8.89438 180.141 9.58823C181.291 9.58823 182.094 10.0309 182.555 10.9161C183.017 11.8014 183.244 14.6784 183.244 19.5413C183.244 22.5978 183.202 25.5646 183.112 28.4297H181.207C180.668 28.4297 180.279 28.5493 180.033 28.7826C179.787 29.0159 179.668 29.4047 179.668 29.943C179.668 30.583 179.823 31.2709 180.141 32.0006H192.435C193.165 32.0006 193.657 31.881 193.908 31.6358C194.16 31.3905 194.286 30.9658 194.286 30.3557C194.286 29.6439 194.136 28.998 193.842 28.4237H190.733C190.643 25.8697 190.601 23.495 190.601 21.3058V16.0661C190.601 13.7692 190.961 12.2619 191.674 11.5442C192.387 10.8204 193.363 10.4615 194.597 10.4615C196.059 10.4615 197.12 11.0656 197.773 12.2739C198.426 13.4821 198.749 15.8568 198.749 19.4037V28.6032C198.749 29.7337 198.887 30.5352 199.169 31.0137C199.444 31.4922 199.959 31.7733 200.708 31.8631C201.457 31.9528 203.243 31.9946 206.058 31.9946C207.209 31.9946 207.988 31.881 208.395 31.6537C208.802 31.4264 209.006 31.0017 209.006 30.3737" fill="white"/>
</g>
<defs>
<clipPath id="clip0_147_368">
<rect width="209" height="38" fill="white"/>
</clipPath>
</defs>
</svg>
