<svg width="17" height="17" viewBox="0 0 17 17" fill="none" xmlns="http://www.w3.org/2000/svg">
<path d="M7.65659 2.18682H4.31685C2.98083 2.18682 2.31281 2.18682 1.80252 2.44683C1.35366 2.67554 0.988716 3.04048 0.760007 3.48935C0.5 3.99964 0.5 4.66765 0.5 6.00367V12.6832C0.5 14.0192 0.5 14.6872 0.760007 15.1975C0.988716 15.6463 1.35366 16.0113 1.80252 16.24C2.31281 16.5 2.98083 16.5 4.31685 16.5H10.9963C12.3324 16.5 13.0004 16.5 13.5107 16.24C13.9595 16.0113 14.3245 15.6463 14.5532 15.1975C14.8132 14.6872 14.8132 14.0192 14.8132 12.6832V9.34341M5.27104 11.7289H6.60259C6.99158 11.7289 7.18607 11.7289 7.3691 11.685C7.53138 11.646 7.68651 11.5818 7.8288 11.4946C7.98929 11.3962 8.12682 11.2587 8.40187 10.9837L16.0059 3.37959C16.6647 2.72084 16.6647 1.65281 16.0059 0.99406C15.3472 0.335314 14.2792 0.335313 13.6204 0.994058L6.01633 8.59813C5.74127 8.87318 5.60374 9.01071 5.50539 9.1712C5.4182 9.31349 5.35394 9.46862 5.31498 9.6309C5.27104 9.81393 5.27104 10.0084 5.27104 10.3974V11.7289Z" stroke="black" stroke-linecap="round" stroke-linejoin="round"/>
</svg>
